<svg width="22" height="20" viewBox="0 0 22 20" fill="none" xmlns="http://www.w3.org/2000/svg">
<path fill-rule="evenodd" clip-rule="evenodd" d="M20.7071 1.70711C21.0976 1.31658 21.0976 0.683417 20.7071 0.292893C20.3166 -0.0976311 19.6834 -0.0976311 19.2929 0.292893L16.0801 3.50567C14.6271 2.62943 12.9175 2 11 2C7.60676 2 4.86467 3.97111 3.04289 5.79289C2.11931 6.71648 1.39675 7.63659 0.905017 8.32501C0.65853 8.67009 0.468421 8.95924 0.338515 9.16458C0.273524 9.2673 0.22349 9.34923 0.188894 9.40689C0.171592 9.43573 0.158141 9.45851 0.148601 9.47481L0.137227 9.49435L0.133751 9.50038L0.132569 9.50244C0.132381 9.50277 0.131757 9.50386 1 10L0.131757 9.50386C-0.043919 9.81129 -0.043919 10.1887 0.131757 10.4961L1 10C0.131757 10.4961 0.131569 10.4958 0.131757 10.4961L0.133751 10.4996L0.137227 10.5056L0.148601 10.5252C0.158141 10.5415 0.171592 10.5643 0.188894 10.5931C0.22349 10.6508 0.273524 10.7327 0.338515 10.8354C0.468421 11.0408 0.65853 11.3299 0.905017 11.675C1.39675 12.3634 2.11931 13.2835 3.04289 14.2071C3.41342 14.5776 3.82201 14.9543 4.26641 15.3194L1.29289 18.2929C0.902369 18.6834 0.902369 19.3166 1.29289 19.7071C1.68342 20.0976 2.31658 20.0976 2.70711 19.7071L5.91988 16.4943C7.37294 17.3706 9.08251 18 11 18C14.3932 18 17.1353 16.0289 18.9571 14.2071C19.8807 13.2835 20.6033 12.3634 21.095 11.675C21.3415 11.3299 21.5316 11.0408 21.6615 10.8354C21.7265 10.7327 21.7765 10.6508 21.8111 10.5931C21.8284 10.5643 21.8419 10.5415 21.8514 10.5252L21.8628 10.5056L21.8662 10.4996L21.8674 10.4976C21.8676 10.4972 21.8682 10.4961 21 10L21.8682 10.4961C22.0439 10.1887 22.0439 9.81129 21.8682 9.50386L21 10C21.8682 9.50386 21.8684 9.50419 21.8682 9.50386L21.8674 9.50244L21.8662 9.50038L21.8628 9.49435L21.8514 9.47481C21.8419 9.45851 21.8284 9.43573 21.8111 9.40689C21.7765 9.34923 21.7265 9.2673 21.6615 9.16458C21.5316 8.95924 21.3415 8.67009 21.095 8.32501C20.6033 7.63659 19.8807 6.71648 18.9571 5.79289C18.5866 5.42237 18.178 5.04567 17.7336 4.68063L20.7071 1.70711ZM14.6144 4.97139C13.5157 4.381 12.3013 4 11 4C8.39324 4 6.13533 5.52889 4.45711 7.20711C3.63069 8.03352 2.97825 8.86341 2.53248 9.48749C2.39412 9.68119 2.2763 9.85418 2.17998 10C2.2763 10.1458 2.39412 10.3188 2.53248 10.5125C2.97825 11.1366 3.63069 11.9665 4.45711 12.7929C4.83844 13.1742 5.24971 13.5479 5.6882 13.8976L7.55382 12.032C7.20193 11.4365 7 10.7418 7 10C7 7.79086 8.79086 6 11 6C11.7418 6 12.4365 6.20193 13.032 6.55382L14.6144 4.97139ZM14.4462 7.96803L16.3118 6.10241C16.7503 6.45214 17.1616 6.82577 17.5429 7.20711C18.3693 8.03352 19.0217 8.86341 19.4675 9.48749C19.6059 9.68119 19.7237 9.85418 19.82 10C19.7237 10.1458 19.6059 10.3188 19.4675 10.5125C19.0217 11.1366 18.3693 11.9665 17.5429 12.7929C15.8647 14.4711 13.6068 16 11 16C9.6987 16 8.48433 15.619 7.38561 15.0286L8.96803 13.4462C9.56355 13.7981 10.2582 14 11 14C13.2091 14 15 12.2091 15 10C15 9.25819 14.7981 8.56355 14.4462 7.96803ZM11.518 8.06774C11.3528 8.02356 11.1792 8 11 8C9.89543 8 9 8.89543 9 10C9 10.1792 9.02356 10.3528 9.06774 10.518L11.518 8.06774ZM10.482 11.9323L12.9323 9.48196C12.9764 9.64718 13 9.82084 13 10C13 11.1046 12.1046 12 11 12C10.8208 12 10.6472 11.9764 10.482 11.9323Z" fill="#9BA1A8"/>
</svg>
