<svg width="22" height="16" viewBox="0 0 22 16" fill="none" xmlns="http://www.w3.org/2000/svg">
<path fill-rule="evenodd" clip-rule="evenodd" d="M11.0001 4C8.79088 4 6.99998 5.79086 6.99998 8C6.99998 10.2091 8.79088 12 11.0001 12C13.2093 12 15.0002 10.2091 15.0002 8C15.0002 5.79086 13.2093 4 11.0001 4ZM9.00002 8C9.00002 6.89543 9.89547 6 11.0001 6C12.1047 6 13.0001 6.89543 13.0001 8C13.0001 9.10457 12.1047 10 11.0001 10C9.89547 10 9.00002 9.10457 9.00002 8Z" fill="#9BA1A8"/>
<path fill-rule="evenodd" clip-rule="evenodd" d="M21.8682 7.50323C21.8682 7.50323 21.8686 7.50386 21.0003 8C21.8686 8.49614 21.8682 8.49677 21.8682 8.49677L21.8666 8.49962L21.8631 8.50565L21.8517 8.52519C21.8422 8.54149 21.8287 8.56427 21.8114 8.59311C21.7768 8.65077 21.7268 8.7327 21.6618 8.83542C21.5319 9.04076 21.3418 9.32991 21.0953 9.67499C20.6035 10.3634 19.881 11.2835 18.9574 12.2071C17.1355 14.0289 14.3934 16 11.0001 16C7.60675 16 4.8646 14.0289 3.04278 12.2071C2.11918 11.2835 1.3966 10.3634 0.904857 9.67499C0.658365 9.32991 0.468252 9.04076 0.338343 8.83542C0.273351 8.7327 0.223316 8.65077 0.188718 8.59311C0.171417 8.56427 0.157965 8.54149 0.148425 8.52519L0.137051 8.50565L0.133575 8.49962L0.132392 8.49756C0.132392 8.49756 0.13158 8.49614 0.999843 8C0.13158 7.50386 0.13194 7.50323 0.13194 7.50323L0.133575 7.50038L0.137051 7.49435L0.148425 7.47481C0.157965 7.45851 0.171417 7.43573 0.188718 7.40689C0.223316 7.34923 0.273351 7.2673 0.338343 7.16458C0.468252 6.95924 0.658365 6.67009 0.904857 6.32501C1.3966 5.63659 2.11918 4.71648 3.04278 3.79289C4.8646 1.97111 7.60675 0 11.0001 0C14.3934 0 17.1355 1.97111 18.9574 3.79289C19.881 4.71648 20.6035 5.63659 21.0953 6.32501C21.3418 6.67009 21.5319 6.95924 21.6618 7.16458C21.7268 7.2673 21.7768 7.34923 21.8114 7.40689C21.8287 7.43573 21.8422 7.45851 21.8517 7.47481L21.8631 7.49435L21.8666 7.50038L21.8682 7.50323ZM2.53236 8.51251C2.394 8.31881 2.27618 8.14582 2.17985 8C2.27618 7.85418 2.394 7.68119 2.53236 7.48749C2.97814 6.86341 3.63059 6.03352 4.45703 5.20711C6.13528 3.52889 8.39325 2 11.0001 2C13.6069 2 15.8649 3.52889 17.5431 5.20711C18.3695 6.03352 19.022 6.86341 19.4678 7.48749C19.6061 7.68119 19.724 7.85418 19.8203 8C19.724 8.14582 19.6061 8.31881 19.4678 8.51251C19.022 9.13659 18.3695 9.96648 17.5431 10.7929C15.8649 12.4711 13.6069 14 11.0001 14C8.39325 14 6.13528 12.4711 4.45703 10.7929C3.63059 9.96648 2.97814 9.13659 2.53236 8.51251Z" fill="#9BA1A8"/>
<path d="M21.0003 8L21.8682 7.50323C22.0439 7.81067 22.0439 8.18933 21.8682 8.49677L21.0003 8Z" fill="#9BA1A8"/>
<path d="M0.13194 7.50323L0.999843 8L0.13158 8.49614C-0.0440996 8.18871 -0.04374 7.81067 0.13194 7.50323Z" fill="#9BA1A8"/>
</svg>
