<svg width="20" height="20" viewBox="0 0 20 20" fill="none" xmlns="http://www.w3.org/2000/svg">
    <path fill-rule="evenodd" clip-rule="evenodd"
        d="M10.0003 2.83325C13.9582 2.83343 17.1663 6.04231 17.1663 10.0002C17.1662 13.958 13.9581 17.1661 10.0003 17.1663C6.04239 17.1663 2.8335 13.9581 2.83333 10.0002C2.83333 6.0422 6.04228 2.83325 10.0003 2.83325ZM9.52864 19.1545L10.0003 19.1663C14.9045 19.1661 18.909 15.3151 19.1546 10.4719L19.1663 10.0002C19.1663 5.09594 15.3153 1.09062 10.472 0.844971L10.0003 0.833252C4.93771 0.833252 0.833328 4.93763 0.833328 10.0002L0.845047 10.4719C1.08278 15.1591 4.84142 18.9171 9.52864 19.1545ZM14.727 7.43366C15.091 7.06755 15.091 6.47396 14.727 6.10784C14.3629 5.74172 13.7727 5.74172 13.4086 6.10784L8.47457 11.0699L6.59137 9.17602C6.22732 8.8099 5.63708 8.8099 5.27303 9.17602C4.90898 9.54214 4.90898 10.1357 5.27303 10.5018L7.8154 13.0587C8.17945 13.4248 8.76969 13.4248 9.13374 13.0587L14.727 7.43366Z"
        fill="#0E33F3" />
</svg>
