<svg width="295" height="295" viewBox="0 0 295 295" fill="none" xmlns="http://www.w3.org/2000/svg">
<g clip-path="url(#clip0_1_26670)">
<path d="M161.939 19.47C124.296 19.47 61.95 36.3672 61.95 87.7726C61.95 131.562 114.886 170.117 164.527 170.117C214.169 170.117 264.517 139.178 264.517 92.2943C264.517 41.9923 212.993 19.47 161.939 19.47Z" fill="url(#paint0_linear_1_26670)"/>
</g>
<g clip-path="url(#clip1_1_26670)">
<path d="M267.597 123.31H198.202C194.887 117.125 203.277 110.63 209.699 114.96C207.524 103.105 225.753 97.8479 230.31 108.569C235.8 96.3016 257.033 98.7757 254.754 115.682C261.279 111.661 270.186 116.609 267.597 123.31Z" fill="white"/>
</g>
<g clip-path="url(#clip2_1_26670)">
<path d="M261.261 269.63H31.6015L38.0511 259.277L47.8721 257.197L55.7096 237.877L87.0564 226.779L95.0936 205.61L116.025 195.076L116.182 190.418L134.657 164.049L151.144 152.769L152.477 137.924L156.799 89.7568L171.58 66.5723L177.929 65.2848L191.024 40.1195L207.987 106.5L222.472 116.417L230.279 166.92L231.599 175.458L244 187.15L261.261 269.63Z" fill="url(#paint1_linear_1_26670)"/>
<path d="M151.144 152.769L150.408 161.882C144.299 165.551 145.846 175.101 141.619 179.223C137.453 183.285 132.654 181.187 128.823 186.654C123.961 193.589 126.442 207.262 116.323 210.828C107.772 213.842 99.9536 204.685 95.0936 205.61L116.024 195.076L116.182 190.418L134.656 164.049L151.144 152.769ZM230.279 166.92C228.028 169.563 221.43 169.909 216.57 166.838C210.961 163.295 206.053 148.26 196.263 146.249C186.214 144.187 180.31 155.494 171.381 151.517C164.203 148.319 163.345 134.096 152.477 137.924L156.799 89.7566L171.58 66.5721L177.929 65.2846L191.024 40.1195L207.987 106.5L222.472 116.416L230.279 166.92L230.279 166.92Z" fill="white"/>
<path d="M261.261 270.022H31.6015C31.5314 270.022 31.4626 270.003 31.4022 269.968C31.3418 269.932 31.2921 269.881 31.258 269.82C31.2239 269.759 31.2069 269.69 31.2085 269.62C31.2102 269.55 31.2305 269.482 31.2674 269.422L37.717 259.069C37.7449 259.024 37.7817 258.985 37.8251 258.955C37.8684 258.925 37.9175 258.903 37.9693 258.892L47.5858 256.856L55.345 237.729C55.3659 237.678 55.3974 237.631 55.4376 237.593C55.4777 237.555 55.5256 237.525 55.578 237.507L86.7531 226.47L94.7257 205.47C94.7605 205.378 94.8286 205.303 94.9165 205.259L115.639 194.83L115.789 190.404C115.792 190.328 115.816 190.255 115.86 190.192L134.334 163.823C134.361 163.785 134.395 163.751 134.434 163.724L150.768 152.549L152.084 137.889L156.406 89.7216C156.412 89.6591 156.433 89.5986 156.466 89.5456L171.248 66.3609C171.276 66.3164 171.314 66.2781 171.357 66.2482C171.401 66.2183 171.45 66.1975 171.502 66.1869L177.666 64.9369L190.675 39.9383C190.712 39.8678 190.769 39.8101 190.84 39.7728C190.91 39.7354 190.99 39.7202 191.069 39.7292C191.148 39.7384 191.223 39.7713 191.283 39.8236C191.343 39.876 191.385 39.9453 191.405 40.0224L208.331 106.26L222.694 116.092C222.784 116.154 222.844 116.249 222.86 116.357L231.967 175.264L244.27 186.864C244.328 186.919 244.368 186.99 244.385 187.069L261.646 269.549C261.658 269.606 261.657 269.665 261.643 269.722C261.629 269.779 261.603 269.832 261.566 269.877C261.529 269.922 261.482 269.959 261.43 269.984C261.377 270.009 261.319 270.022 261.261 270.022ZM32.3096 269.237H260.777L243.64 187.35L231.329 175.743C231.265 175.683 231.223 175.604 231.21 175.518L222.109 116.645L207.765 106.824C207.686 106.77 207.629 106.69 207.606 106.597L190.898 41.2137L178.278 65.4656C178.251 65.5175 178.213 65.5628 178.166 65.5981C178.119 65.6334 178.065 65.6577 178.007 65.6694L171.822 66.9237L157.182 89.8869L152.868 137.959L151.536 152.804C151.53 152.861 151.513 152.917 151.483 152.967C151.454 153.017 151.414 153.06 151.366 153.093L134.938 164.332L116.572 190.547L116.418 195.089C116.415 195.159 116.394 195.228 116.356 195.287C116.318 195.347 116.265 195.395 116.202 195.426L95.4073 205.891L87.4243 226.918C87.404 226.972 87.3724 227.02 87.3316 227.06C87.2908 227.1 87.2417 227.13 87.1879 227.149L56.0079 238.188L48.2364 257.344C48.2122 257.404 48.1738 257.457 48.1245 257.498C48.0751 257.539 48.0164 257.568 47.9535 257.581L38.2965 259.626L32.3096 269.237Z" fill="#242D35"/>
<path d="M173.018 93.2134C173.01 93.2134 173.001 93.2134 172.993 93.2126C172.941 93.2093 172.891 93.1959 172.845 93.1732C172.798 93.1505 172.757 93.1188 172.723 93.0801C172.689 93.0414 172.663 92.9964 172.646 92.9475C172.629 92.8987 172.622 92.8471 172.625 92.7956L173.965 71.7983C173.969 71.7411 173.985 71.6854 174.012 71.6351L177.583 65.096C177.634 65.0057 177.718 64.939 177.818 64.9104C177.917 64.8817 178.024 64.8935 178.115 64.943C178.206 64.9926 178.274 65.0759 178.303 65.175C178.333 65.2741 178.322 65.3809 178.274 65.4723L174.744 71.935L173.41 92.8455C173.404 92.9451 173.36 93.0385 173.287 93.1069C173.214 93.1752 173.118 93.2133 173.018 93.2134ZM207.988 106.5L217.139 144.868L212.563 109.633L207.988 106.5Z" fill="#242D35"/>
<path d="M217.139 145.261C217.051 145.26 216.965 145.231 216.896 145.176C216.826 145.121 216.777 145.045 216.757 144.959L207.605 106.591C207.587 106.514 207.592 106.433 207.621 106.359C207.649 106.285 207.7 106.222 207.765 106.177C207.831 106.132 207.908 106.108 207.987 106.108C208.067 106.108 208.144 106.132 208.21 106.176L212.786 109.31C212.878 109.373 212.939 109.472 212.953 109.583L217.529 144.818C217.536 144.873 217.532 144.929 217.515 144.983C217.499 145.036 217.471 145.086 217.435 145.128C217.398 145.17 217.352 145.203 217.301 145.226C217.25 145.249 217.195 145.261 217.139 145.261L217.139 145.261ZM208.607 107.4L215.786 137.497L212.196 109.858L208.607 107.4ZM115.876 270.023C115.808 270.023 115.741 270.005 115.682 269.972C115.623 269.939 115.574 269.89 115.539 269.832C115.504 269.774 115.485 269.708 115.483 269.64C115.482 269.572 115.498 269.505 115.529 269.446L127.285 247.451C127.343 247.343 127.447 247.268 127.567 247.248L134.496 246.095L144.087 223.255C144.117 223.184 144.167 223.123 144.232 223.08C144.296 223.037 144.372 223.014 144.45 223.014H181.328L186.071 187.334C186.079 187.277 186.098 187.223 186.129 187.175L195.891 171.855L192.822 124.414C192.818 124.363 192.825 124.311 192.842 124.262C192.859 124.214 192.885 124.169 192.919 124.13C192.953 124.091 192.994 124.059 193.041 124.037C193.087 124.014 193.137 124 193.189 123.997C193.241 123.994 193.292 124.001 193.341 124.017C193.39 124.034 193.435 124.06 193.474 124.094C193.513 124.128 193.544 124.169 193.567 124.216C193.59 124.262 193.603 124.312 193.607 124.364L196.685 171.932C196.69 172.015 196.669 172.098 196.624 172.168L186.839 187.524L182.062 223.458C182.05 223.553 182.003 223.639 181.932 223.702C181.86 223.765 181.768 223.799 181.673 223.799H144.711L135.137 246.598C135.112 246.659 135.071 246.713 135.019 246.754C134.966 246.796 134.905 246.823 134.839 246.834L127.888 247.991L116.223 269.815C116.19 269.878 116.14 269.931 116.078 269.967C116.017 270.004 115.947 270.023 115.876 270.023ZM231.598 175.458L237.415 213.288L236.479 180.059L231.598 175.458Z" fill="#242D35"/>
<path d="M237.414 213.681C237.32 213.681 237.23 213.647 237.158 213.586C237.087 213.525 237.04 213.441 237.026 213.348L231.21 175.518C231.197 175.437 231.21 175.354 231.247 175.281C231.284 175.208 231.343 175.148 231.415 175.11C231.488 175.072 231.571 175.058 231.652 175.069C231.733 175.08 231.809 175.116 231.868 175.172L236.749 179.773C236.825 179.845 236.869 179.944 236.872 180.048L237.808 213.277C237.809 213.329 237.8 213.382 237.781 213.431C237.762 213.48 237.733 213.524 237.697 213.562C237.66 213.6 237.616 213.63 237.568 213.65C237.519 213.67 237.467 213.681 237.414 213.681ZM232.161 176.528L236.844 206.987L236.09 180.233L232.16 176.528L232.161 176.528ZM190.578 270.023C190.519 270.023 190.46 270.01 190.407 269.985C190.354 269.959 190.307 269.922 190.27 269.876C190.234 269.83 190.207 269.777 190.194 269.719C190.181 269.662 190.18 269.603 190.193 269.545L192.277 260.182C192.291 260.119 192.32 260.061 192.362 260.012C192.404 259.963 192.457 259.925 192.517 259.901L204.493 255.234L207.596 221.146C207.603 221.07 207.632 220.997 207.68 220.937L217.501 208.602C217.566 208.52 217.66 208.468 217.764 208.456C217.868 208.444 217.972 208.474 218.054 208.539C218.135 208.604 218.188 208.699 218.199 208.802C218.211 208.906 218.181 209.01 218.116 209.091L208.368 221.334L205.254 255.547C205.248 255.62 205.221 255.69 205.177 255.748C205.133 255.806 205.074 255.851 205.005 255.878L192.999 260.557L190.961 269.716C190.942 269.803 190.893 269.881 190.823 269.937C190.754 269.993 190.667 270.023 190.578 270.023ZM253.671 269.631L251.588 261.754L243.701 257.444L239.981 234.854L247.077 256.413L255.079 259.487L261.261 269.63L253.671 269.631Z" fill="#242D35"/>
<path d="M253.671 270.023C253.585 270.023 253.5 269.994 253.431 269.942C253.363 269.889 253.313 269.814 253.291 269.731L251.251 262.017L243.512 257.789C243.46 257.76 243.415 257.72 243.38 257.671C243.346 257.622 243.323 257.567 243.313 257.508L239.593 234.918C239.577 234.82 239.598 234.72 239.652 234.637C239.707 234.555 239.791 234.496 239.887 234.472C239.983 234.448 240.085 234.462 240.172 234.51C240.259 234.558 240.324 234.637 240.355 234.732L247.392 256.113L255.22 259.12C255.301 259.151 255.37 259.208 255.415 259.282L261.597 269.425C261.633 269.485 261.653 269.553 261.654 269.623C261.655 269.692 261.638 269.761 261.604 269.822C261.57 269.883 261.52 269.934 261.459 269.969C261.399 270.004 261.331 270.023 261.261 270.022L253.671 270.023V270.023ZM244.058 257.191L251.777 261.409C251.871 261.461 251.941 261.549 251.968 261.653L253.974 269.237L260.561 269.237L254.813 259.805L246.935 256.779C246.881 256.758 246.832 256.726 246.792 256.684C246.751 256.641 246.721 256.591 246.703 256.536L241.193 239.795L244.058 257.192V257.191ZM45.7881 262.444C45.723 262.444 45.6589 262.428 45.6016 262.397C45.5442 262.366 45.4955 262.322 45.4596 262.267C45.4238 262.213 45.402 262.151 45.3963 262.086C45.3905 262.021 45.401 261.956 45.4266 261.896L47.5098 257.041C47.5528 256.948 47.6303 256.876 47.726 256.839C47.8217 256.802 47.9279 256.804 48.0222 256.845C48.1164 256.885 48.1911 256.96 48.2305 257.055C48.2698 257.149 48.2707 257.256 48.2329 257.351L46.1497 262.206C46.1194 262.276 46.0689 262.337 46.0047 262.379C45.9404 262.421 45.8651 262.444 45.7881 262.444ZM79.4186 250.158C79.3564 250.158 79.295 250.144 79.2395 250.115C79.184 250.087 79.1361 250.046 79.0997 249.995C79.0632 249.945 79.0393 249.887 79.0299 249.825C79.0204 249.764 79.0258 249.701 79.0454 249.642L86.6841 226.656C86.7004 226.607 86.7261 226.562 86.7599 226.523C86.7937 226.484 86.8348 226.452 86.881 226.429C86.9271 226.406 86.9774 226.392 87.0289 226.388C87.0804 226.384 87.1321 226.391 87.1811 226.407C87.2301 226.423 87.2755 226.449 87.3145 226.483C87.3536 226.516 87.3856 226.557 87.4088 226.603C87.4319 226.65 87.4458 226.7 87.4495 226.751C87.4533 226.803 87.4468 226.854 87.4306 226.903L79.7919 249.889C79.7659 249.967 79.7158 250.035 79.6489 250.084C79.5819 250.132 79.5015 250.158 79.4188 250.158L79.4186 250.158ZM116.025 195.075L115.874 229.281L110.969 197.62L116.025 195.075Z" fill="#242D35"/>
<path d="M115.873 229.674C115.779 229.674 115.689 229.641 115.617 229.58C115.546 229.519 115.499 229.434 115.485 229.341L110.581 197.68C110.568 197.598 110.582 197.514 110.62 197.44C110.658 197.366 110.718 197.306 110.792 197.269L115.848 194.724C115.908 194.694 115.975 194.68 116.042 194.683C116.11 194.686 116.175 194.706 116.232 194.741C116.289 194.776 116.337 194.826 116.369 194.885C116.402 194.943 116.419 195.01 116.418 195.077L116.267 229.283C116.266 229.387 116.225 229.487 116.151 229.56C116.077 229.633 115.977 229.674 115.873 229.674ZM111.402 197.842L115.502 224.315L115.629 195.714L111.402 197.842ZM149.656 171.595C149.601 171.595 149.548 171.584 149.498 171.562C149.448 171.541 149.403 171.509 149.366 171.469C149.329 171.429 149.301 171.382 149.284 171.331C149.266 171.279 149.259 171.225 149.263 171.171L150.751 152.738C150.755 152.686 150.769 152.636 150.793 152.59C150.816 152.544 150.849 152.503 150.888 152.47C150.927 152.436 150.973 152.411 151.022 152.395C151.071 152.379 151.123 152.374 151.175 152.378C151.279 152.386 151.375 152.435 151.443 152.515C151.51 152.594 151.544 152.697 151.535 152.801L150.047 171.234C150.039 171.333 149.995 171.424 149.922 171.491C149.849 171.558 149.754 171.595 149.656 171.595H149.656ZM272.777 270.023H19.4699C19.3656 270.023 19.2656 269.982 19.1918 269.908C19.1181 269.834 19.0767 269.735 19.0767 269.63C19.0767 269.526 19.1181 269.426 19.1918 269.353C19.2656 269.279 19.3656 269.238 19.4699 269.238H272.777C272.881 269.238 272.981 269.279 273.055 269.353C273.129 269.426 273.17 269.526 273.17 269.63C273.17 269.735 273.129 269.834 273.055 269.908C272.981 269.982 272.881 270.023 272.777 270.023Z" fill="#242D35"/>
</g>
<g clip-path="url(#clip3_1_26670)">
<path d="M181.163 54.4767H108.76C106.276 48.7359 115.835 38.0851 127.049 45.1856C131.339 26.3768 162.498 26.6034 165.283 47.7539C173.411 39.4448 183.572 48.2826 181.163 54.4767Z" fill="white"/>
</g>
<g clip-path="url(#clip4_1_26670)">
<path d="M223.218 37.3665L213.025 45.643L163.673 85.7168L156.559 66.6164L146.592 39.8547L223.218 37.3665Z" fill="url(#paint2_linear_1_26670)"/>
<path d="M163.673 86.1099C163.593 86.1098 163.515 86.0853 163.449 86.0396C163.383 85.994 163.333 85.9293 163.305 85.8543L146.224 39.9923C146.202 39.9339 146.194 39.8711 146.202 39.8091C146.209 39.7471 146.231 39.6878 146.265 39.636C146.3 39.5842 146.347 39.5414 146.401 39.5111C146.456 39.4809 146.516 39.464 146.579 39.462L223.205 36.9736C223.287 36.9704 223.368 36.9935 223.436 37.0394C223.505 37.0853 223.557 37.1518 223.585 37.2293C223.644 37.3875 223.595 37.5655 223.464 37.6719L163.92 86.0222C163.849 86.0796 163.762 86.1099 163.673 86.1099ZM147.15 40.2301L163.85 85.0672L222.064 37.7973L147.15 40.2301Z" fill="#242D35"/>
<path d="M213.025 45.6429L163.673 85.7167L156.559 66.6164C159.707 69.0653 164.112 69.9007 167.896 68.5877C172.013 67.1608 175.212 63.5385 179.48 62.6658C181.396 62.2766 183.431 62.4673 185.26 61.7813C187.35 60.9971 188.853 59.1968 190.435 57.6224C196.546 51.5472 204.753 48.255 213.025 45.6429Z" fill="#242D35"/>
<path d="M163.673 86.1098C163.593 86.1097 163.515 86.0852 163.449 86.0396C163.383 85.9939 163.333 85.9293 163.305 85.8543L156.191 66.7538C156.161 66.6736 156.158 66.5859 156.183 66.5039C156.207 66.4219 156.257 66.3501 156.326 66.2994C156.395 66.2488 156.479 66.222 156.564 66.2231C156.649 66.2243 156.732 66.2533 156.8 66.3058C159.886 68.707 164.192 69.4573 167.767 68.2163C169.566 67.593 171.229 66.5112 172.838 65.4652C174.87 64.1438 176.971 62.7774 179.402 62.2806C180.187 62.1212 180.991 62.0561 181.769 61.9932C182.953 61.8977 184.071 61.8073 185.122 61.4132C186.797 60.7847 188.121 59.4263 189.401 58.1124C189.653 57.8538 189.904 57.5957 190.158 57.3435C196.513 51.026 205.223 47.6941 212.906 45.2681C212.993 45.2409 213.087 45.2449 213.172 45.2794C213.256 45.3139 213.326 45.3768 213.369 45.4573C213.412 45.5378 213.426 45.6308 213.408 45.7204C213.391 45.8101 213.342 45.8907 213.271 45.9484L163.92 86.0222C163.849 86.0795 163.762 86.1098 163.673 86.1098ZM157.365 67.6555L163.849 85.0669L211.144 46.6638C204.074 49.0084 196.405 52.241 190.711 57.9015C190.46 58.1529 190.21 58.4063 189.963 58.6616C188.622 60.037 187.236 61.4592 185.397 62.1495C184.244 62.5821 183.018 62.6811 181.832 62.7769C181.077 62.838 180.297 62.9011 179.558 63.051C177.274 63.518 175.327 64.7842 173.266 66.1246C171.617 67.1964 169.913 68.3047 168.024 68.9592C164.594 70.1501 160.539 69.6283 157.365 67.6557L157.365 67.6555Z" fill="#242D35"/>
<path d="M189.316 150.04L147.87 38.7679C147.558 37.9322 146.63 37.5075 145.795 37.8192L145.795 37.8193C144.961 38.1311 144.536 39.0613 144.848 39.897L186.294 151.17C186.606 152.005 187.534 152.43 188.369 152.118L188.369 152.118C189.203 151.806 189.627 150.876 189.316 150.04Z" fill="white"/>
<path d="M187.804 152.614C187.52 152.614 187.238 152.553 186.972 152.431C186.732 152.322 186.516 152.167 186.337 151.974C186.157 151.781 186.018 151.554 185.926 151.307L144.48 40.034C144.388 39.7871 144.345 39.5242 144.354 39.2605C144.363 38.9969 144.425 38.7377 144.535 38.498C144.644 38.2577 144.799 38.0414 144.992 37.8616C145.185 37.6819 145.411 37.5422 145.658 37.4506C146.694 37.0632 147.851 37.5929 148.238 38.6303L189.684 149.903C190.07 150.94 189.541 152.099 188.506 152.486C188.277 152.572 188.04 152.614 187.804 152.614ZM146.358 38.11C146.216 38.11 146.072 38.1348 145.932 38.1873C145.627 38.3013 145.384 38.5275 145.249 38.8245C145.114 39.1215 145.102 39.4534 145.216 39.7592L186.662 151.032C186.717 151.183 186.802 151.321 186.911 151.438C187.021 151.556 187.152 151.65 187.298 151.716C187.444 151.784 187.601 151.821 187.761 151.827C187.922 151.832 188.081 151.806 188.231 151.75C188.534 151.636 188.78 151.407 188.914 151.112C189.049 150.817 189.061 150.481 188.948 150.178L147.502 38.9051C147.415 38.6716 147.258 38.4704 147.054 38.3284C146.849 38.1863 146.606 38.1101 146.358 38.11Z" fill="#242D35"/>
</g>
<g clip-path="url(#clip5_1_26670)">
<path d="M67.4489 255.938L65.5007 263.63L77.3951 264.964L81.2916 253.271L67.4489 255.938Z" fill="url(#paint3_linear_1_26670)"/>
<path d="M77.3954 265.357C77.3808 265.357 77.3663 265.356 77.3513 265.354L65.4571 264.021C65.4013 264.015 65.3475 263.996 65.2993 263.968C65.2511 263.939 65.2096 263.9 65.1777 263.854C65.1457 263.808 65.124 263.755 65.1141 263.7C65.1041 263.645 65.1061 263.588 65.1199 263.534L67.0681 255.841C67.0864 255.769 67.125 255.703 67.1793 255.652C67.2337 255.601 67.3015 255.566 67.3749 255.552L81.2175 252.885C81.2849 252.872 81.3545 252.877 81.4194 252.899C81.4843 252.922 81.5423 252.961 81.5875 253.012C81.6328 253.064 81.6637 253.126 81.6773 253.194C81.6908 253.261 81.6865 253.331 81.6648 253.396L77.7684 265.088C77.7423 265.166 77.6923 265.234 77.6254 265.283C77.5585 265.331 77.4782 265.357 77.3957 265.357H77.3954ZM65.9925 263.29L77.1228 264.537L80.7061 253.785L67.7687 256.277L65.9925 263.29V263.29Z" fill="#242D35"/>
<path d="M163.424 211.169L162.399 217.016L149.992 217.682L151.017 208.452L163.424 211.169Z" fill="url(#paint4_linear_1_26670)"/>
<path d="M149.992 218.075C149.937 218.075 149.882 218.064 149.832 218.041C149.781 218.019 149.736 217.986 149.699 217.944C149.662 217.903 149.635 217.855 149.618 217.802C149.601 217.749 149.595 217.694 149.601 217.639L150.627 208.408C150.633 208.354 150.65 208.301 150.678 208.253C150.706 208.206 150.744 208.165 150.788 208.133C150.833 208.1 150.884 208.078 150.938 208.067C150.992 208.056 151.048 208.056 151.101 208.068L163.508 210.786C163.608 210.807 163.694 210.866 163.751 210.951C163.807 211.035 163.829 211.138 163.812 211.238L162.786 217.084C162.771 217.171 162.726 217.251 162.66 217.31C162.593 217.369 162.509 217.404 162.42 217.408L150.013 218.075C150.006 218.075 149.999 218.075 149.992 218.075H149.992ZM151.36 208.929L150.434 217.265L162.066 216.64L162.972 211.473L151.36 208.929ZM66.3313 260.351C68.4383 260.351 69.7047 262.605 71.8068 262.81C73.9089 263.015 76.7081 261.538 78.5384 261.533C77.3952 264.963 78.4322 265.524 77.9462 267.159C77.7341 267.872 77.2972 268.499 76.7004 268.944C76.1036 269.389 75.379 269.63 74.6345 269.63H50.0031C49.116 269.63 48.5213 268.718 48.8782 267.906L49.1345 267.323C49.6128 266.235 50.3918 265.306 51.3798 264.646C52.3678 263.985 53.5237 263.621 54.7118 263.595L58.0291 263.536C59.8898 263.503 61.6818 262.844 63.1316 261.677C63.9953 260.982 65.1146 260.351 66.3313 260.351V260.351Z" fill="#242D35"/>
<path d="M74.6345 270.023H50.0031C49.4533 270.023 48.9456 269.748 48.6451 269.288C48.3446 268.827 48.2971 268.251 48.5184 267.748L48.7746 267.165C49.8084 264.813 52.1355 263.258 54.7032 263.202L58.0222 263.143C59.7776 263.112 61.5047 262.483 62.8851 261.371C64.0505 260.433 65.2099 259.957 66.3313 259.957C67.5488 259.957 68.4862 260.614 69.3926 261.248C70.1866 261.805 70.9366 262.33 71.8451 262.418C72.9331 262.523 74.2648 262.136 75.5507 261.76C76.6383 261.442 77.6658 261.142 78.5372 261.14H78.5384C78.6007 261.14 78.662 261.154 78.7175 261.183C78.7729 261.211 78.8208 261.252 78.8572 261.303C78.8937 261.353 78.9175 261.412 78.9269 261.473C78.9363 261.535 78.9309 261.598 78.9112 261.657C78.2495 263.643 78.3438 264.592 78.4273 265.43C78.4843 266.004 78.5382 266.546 78.323 267.271C77.8411 268.891 76.3243 270.023 74.6343 270.023L74.6345 270.023ZM66.3313 260.744C65.3936 260.744 64.4002 261.161 63.378 261.984C61.8622 263.204 59.9651 263.895 58.0359 263.929L54.7187 263.988C52.4568 264.037 50.4054 265.409 49.4943 267.482L49.238 268.064C49.1223 268.328 49.1461 268.617 49.3033 268.858C49.4605 269.099 49.7156 269.237 50.0031 269.237H74.6345C75.9791 269.237 77.186 268.336 77.5697 267.046C77.741 266.47 77.6988 266.045 77.6453 265.508C77.5665 264.716 77.4702 263.749 77.9904 261.968C77.3336 262.058 76.5697 262.282 75.7714 262.515C74.4134 262.912 73.0076 263.322 71.7689 263.201C70.6551 263.092 69.7841 262.482 68.942 261.893C68.0981 261.302 67.3012 260.744 66.3315 260.744L66.3313 260.744ZM150.224 215.596C149.936 217.133 149.505 218.362 149.005 219.593C148.505 220.823 147.659 223.362 150.966 223.362H177.91C178.693 223.362 179.204 222.539 178.856 221.837L178.125 220.364C177.765 219.639 177.235 219.012 176.581 218.535C175.927 218.058 175.167 217.746 174.367 217.625L168.338 216.717C166.713 216.472 165.24 215.697 163.998 214.619C163.721 214.378 163.378 214.208 162.963 214.208C161.54 214.208 158.618 215.67 157.08 215.67C154.619 215.67 150.697 213.067 150.223 215.596L150.224 215.596Z" fill="#242D35"/>
<path d="M177.91 223.755H150.966C149.751 223.755 148.912 223.423 148.472 222.77C147.811 221.789 148.252 220.402 148.641 219.444C149.086 218.347 149.54 217.113 149.837 215.523C149.938 214.981 150.187 214.587 150.576 214.351C151.463 213.812 152.851 214.233 154.319 214.679C155.287 214.973 156.287 215.276 157.08 215.276C157.8 215.276 158.921 214.904 160.005 214.544C161.135 214.169 162.202 213.815 162.963 213.815C163.433 213.815 163.868 213.985 164.256 214.322C165.517 215.416 166.948 216.109 168.397 216.328L174.426 217.236C175.288 217.366 176.107 217.703 176.812 218.217C177.517 218.731 178.088 219.407 178.477 220.189L179.207 221.662C179.318 221.882 179.37 222.128 179.358 222.374C179.347 222.621 179.272 222.86 179.141 223.069C179.012 223.279 178.831 223.453 178.615 223.573C178.4 223.693 178.157 223.755 177.91 223.754V223.755ZM150.61 215.668C150.3 217.326 149.83 218.605 149.369 219.74C149.184 220.196 148.621 221.583 149.124 222.331C149.409 222.754 150.029 222.968 150.966 222.968H177.91C178.023 222.97 178.135 222.941 178.233 222.886C178.332 222.831 178.415 222.752 178.473 222.655C178.534 222.56 178.568 222.45 178.574 222.337C178.579 222.224 178.555 222.112 178.504 222.011L177.773 220.539C177.441 219.871 176.952 219.292 176.349 218.853C175.746 218.413 175.046 218.125 174.308 218.014L168.28 217.105C166.684 216.865 165.114 216.108 163.741 214.916C163.496 214.704 163.242 214.601 162.963 214.601C162.329 214.601 161.273 214.951 160.253 215.29C159.109 215.67 157.927 216.062 157.079 216.062C156.17 216.062 155.113 215.742 154.091 215.432C152.852 215.056 151.57 214.667 150.984 215.023C150.791 215.14 150.669 215.351 150.61 215.668Z" fill="#242D35"/>
<path d="M86.034 157.759C88.0848 157.092 89.6742 155.092 91.1096 154.785C92.5451 154.477 92.5742 157.554 92.5742 157.554L87.9822 159.246L86.034 157.759V157.759Z" fill="url(#paint5_linear_1_26670)"/>
<path d="M87.9821 159.639C87.897 159.639 87.8132 159.611 87.7437 159.559L85.7955 158.071C85.7384 158.028 85.6943 157.97 85.668 157.903C85.6417 157.836 85.6342 157.764 85.6462 157.693C85.6583 157.622 85.6894 157.556 85.7364 157.502C85.7833 157.447 85.8442 157.407 85.9124 157.385C86.9078 157.061 87.7908 156.402 88.6446 155.765C89.4688 155.149 90.2477 154.567 91.0271 154.4C91.4005 154.32 91.7501 154.4 92.0381 154.631C92.9211 155.338 92.9651 157.326 92.9672 157.55C92.968 157.632 92.9437 157.711 92.8977 157.778C92.8516 157.844 92.7861 157.895 92.71 157.923L88.1181 159.615C88.0745 159.631 88.0286 159.639 87.9823 159.64L87.9821 159.639ZM86.8241 157.867L88.0487 158.802L92.1707 157.283C92.1267 156.566 91.9408 155.559 91.5463 155.244C91.4434 155.161 91.3339 155.138 91.1916 155.169C90.5802 155.3 89.8684 155.832 89.1147 156.394C88.4284 156.907 87.6692 157.474 86.8241 157.867V157.867Z" fill="#242D35"/>
<path d="M159.333 108.846C161.075 107.899 163.065 106.71 163.988 105.941C164.911 105.172 166.022 104.157 166.885 103.633C169.038 102.326 170.176 103.312 172.537 102.287C174.575 101.402 174.691 103.056 173.191 103.864C174.473 103.685 174.806 104.351 174.216 105.326C175.267 105.172 175.882 106.12 175.113 106.813C176.382 106.967 176.081 108.089 174.03 109.313C170.269 111.556 168.205 111.114 166.577 112.056C164.296 113.377 163.527 114.095 161.527 116.197C159.643 114.159 158.68 112.038 159.333 108.846Z" fill="url(#paint6_linear_1_26670)"/>
<path d="M161.527 116.59H161.524C161.471 116.59 161.417 116.578 161.368 116.556C161.319 116.535 161.275 116.503 161.239 116.464C159.02 114.063 158.335 111.762 158.948 108.767C158.96 108.711 158.983 108.658 159.017 108.612C159.052 108.566 159.095 108.528 159.146 108.501C160.756 107.624 162.808 106.413 163.736 105.639C163.95 105.461 164.174 105.269 164.403 105.074C165.184 104.406 165.992 103.716 166.681 103.297C167.918 102.546 168.871 102.498 169.792 102.452C170.557 102.414 171.348 102.374 172.381 101.926C173.921 101.257 174.398 101.94 174.508 102.166C174.706 102.574 174.574 103.089 174.206 103.54C174.471 103.637 174.632 103.791 174.729 103.939C174.844 104.113 174.974 104.446 174.817 104.958C175.234 105.053 175.576 105.302 175.745 105.662C175.886 105.962 175.885 106.289 175.754 106.592C176.095 106.77 176.208 107.034 176.245 107.208C176.395 107.919 175.68 108.786 174.232 109.65C171.887 111.049 170.202 111.424 168.848 111.726C168.016 111.911 167.358 112.058 166.774 112.396C164.588 113.662 163.836 114.34 161.812 116.468C161.775 116.506 161.731 116.537 161.682 116.558C161.633 116.579 161.58 116.59 161.527 116.59ZM159.683 109.103C159.205 111.639 159.749 113.563 161.536 115.618C163.407 113.663 164.216 112.968 166.38 111.715C167.069 111.317 167.814 111.151 168.677 110.958C169.976 110.669 171.593 110.309 173.829 108.975C175.162 108.18 175.514 107.551 175.476 107.371C175.463 107.31 175.318 107.233 175.066 107.203C174.991 107.194 174.921 107.163 174.863 107.115C174.804 107.067 174.762 107.003 174.739 106.931C174.716 106.859 174.715 106.782 174.734 106.709C174.754 106.636 174.795 106.571 174.851 106.52C174.963 106.418 175.137 106.216 175.034 105.996C174.948 105.813 174.679 105.655 174.273 105.714C174.2 105.725 174.124 105.715 174.056 105.684C173.988 105.654 173.93 105.605 173.889 105.543C173.848 105.481 173.825 105.408 173.823 105.333C173.822 105.259 173.841 105.185 173.88 105.122C174.123 104.72 174.136 104.467 174.073 104.371C174.008 104.272 173.752 104.182 173.245 104.253C173.154 104.266 173.061 104.247 172.983 104.198C172.904 104.149 172.846 104.074 172.817 103.986C172.789 103.898 172.792 103.803 172.826 103.718C172.86 103.632 172.923 103.561 173.004 103.517C173.664 103.162 173.876 102.665 173.8 102.509C173.758 102.42 173.419 102.332 172.694 102.647C171.53 103.152 170.627 103.198 169.831 103.237C168.932 103.282 168.156 103.321 167.089 103.969C166.454 104.354 165.671 105.024 164.913 105.671C164.682 105.869 164.456 106.062 164.24 106.242C163.089 107.202 160.635 108.581 159.683 109.102V109.103Z" fill="#242D35"/>
<path d="M154.888 111.248C156.427 110.519 159.333 108.846 159.333 108.846L165.27 118.453L159.541 121.94L154.503 116.056L154.888 111.248L154.888 111.248Z" fill="white"/>
<path d="M159.541 122.334C159.484 122.334 159.428 122.321 159.376 122.298C159.325 122.274 159.279 122.239 159.242 122.196L154.205 116.312C154.171 116.272 154.145 116.227 154.129 116.178C154.113 116.128 154.107 116.076 154.112 116.025L154.496 111.217C154.502 111.148 154.525 111.082 154.564 111.025C154.604 110.968 154.657 110.923 154.72 110.893C156.227 110.179 159.108 108.522 159.137 108.505C159.226 108.454 159.331 108.44 159.43 108.465C159.529 108.49 159.614 108.553 159.668 108.639L165.604 118.247C165.631 118.291 165.65 118.34 165.658 118.391C165.666 118.442 165.664 118.495 165.652 118.545C165.64 118.596 165.618 118.643 165.588 118.685C165.557 118.727 165.519 118.763 165.474 118.79L159.745 122.277C159.684 122.314 159.613 122.334 159.541 122.334V122.334ZM154.908 115.924L159.622 121.431L164.728 118.323L159.199 109.376C158.432 109.812 156.52 110.891 155.262 111.505L154.908 115.924L154.908 115.924Z" fill="#242D35"/>
<path d="M84.983 114.171C89.3922 112.658 92.1094 112.3 96.0314 111.864C99.9533 111.428 112.668 115.223 112.668 115.223L127.023 154.914L102.107 161.581L83.3294 125.376L84.9828 114.171H84.983Z" fill="white"/>
<path d="M102.107 161.974C102.035 161.974 101.964 161.954 101.903 161.917C101.841 161.879 101.791 161.826 101.758 161.762L82.9805 125.557C82.9425 125.484 82.9285 125.401 82.9406 125.319L84.594 114.114C84.6046 114.043 84.6345 113.975 84.6805 113.92C84.7266 113.865 84.787 113.823 84.8552 113.799C89.2353 112.296 91.9832 111.918 95.9879 111.473C99.9417 111.03 112.258 114.69 112.78 114.846C112.9 114.881 112.995 114.972 113.038 115.089L127.393 154.78C127.411 154.831 127.419 154.886 127.415 154.94C127.412 154.994 127.397 155.047 127.371 155.096C127.346 155.144 127.311 155.186 127.269 155.221C127.226 155.255 127.177 155.279 127.125 155.294L102.208 161.96C102.175 161.969 102.141 161.974 102.107 161.974V161.974ZM83.7368 125.308L102.31 161.119L126.508 154.645L112.366 115.544C110.771 115.076 99.6166 111.862 96.0746 112.254C92.2053 112.685 89.5932 113.025 85.3365 114.466L83.7368 125.308Z" fill="#242D35"/>
<path d="M94.8535 110.402L91.0499 104.907C94.8007 102.91 94.987 98.8882 94.5218 96.1768C95.1941 95.8644 95.9309 95.4046 95.7495 94.659C95.6454 94.2309 95.0575 93.9024 93.9727 94.0933C93.0402 91.6665 89.3271 85.448 83.5988 86.7874C77.6774 88.1719 77.5235 97.095 77.5235 97.095L81.1379 100.941L84.2908 112.556L93.8269 113.672L94.8535 110.403V110.402Z" fill="url(#paint7_linear_1_26670)"/>
<path d="M93.8269 114.064C93.8117 114.064 93.7964 114.064 93.7811 114.062L84.2452 112.946C84.1673 112.937 84.0939 112.905 84.0344 112.854C83.975 112.802 83.9323 112.735 83.9117 112.659L80.7843 101.138L77.2371 97.3639C77.167 97.2893 77.1287 97.1903 77.1304 97.0879C77.1369 96.711 77.3602 87.842 83.5094 86.4043C89.2662 85.0575 93.0712 90.9334 94.2223 93.6615C95.4315 93.5406 96.0072 94.0549 96.1316 94.5656C96.3684 95.5406 95.497 96.1225 94.9557 96.4028C95.259 98.4659 95.3643 102.766 91.6179 105.036L95.177 110.178C95.2462 110.278 95.2651 110.404 95.2289 110.52L94.202 113.789C94.177 113.869 94.1271 113.939 94.0597 113.988C93.9923 114.038 93.9109 114.064 93.8273 114.064H93.8269ZM84.6003 112.196L93.5492 113.243L94.421 110.468L90.7266 105.13C90.695 105.085 90.6735 105.033 90.6633 104.978C90.6532 104.924 90.6547 104.868 90.6678 104.814C90.6809 104.76 90.7052 104.709 90.7393 104.665C90.7733 104.622 90.8162 104.585 90.8651 104.559C94.6092 102.566 94.5204 98.4934 94.1342 96.2432C94.1196 96.1581 94.1334 96.0706 94.1735 95.9941C94.2136 95.9177 94.2777 95.8565 94.3559 95.8201C95.3682 95.3497 95.4284 95.002 95.3675 94.7515C95.3219 94.5644 94.9207 94.3246 94.0405 94.4801C93.9507 94.4961 93.8581 94.4803 93.7786 94.4354C93.6992 94.3904 93.6379 94.3192 93.6054 94.234C92.6852 91.839 89.1115 85.9014 83.6881 87.1697C78.5535 88.3702 77.9808 95.7708 77.9224 96.9454L81.4238 100.671C81.468 100.718 81.4999 100.775 81.5168 100.838L84.6003 112.196Z" fill="#242D35"/>
<path d="M90.2023 95.0802C91.3685 94.6837 92.1348 93.8352 91.9138 93.1849C91.6928 92.5346 90.5683 92.3289 89.4021 92.7254C88.2359 93.1218 87.4697 93.9704 87.6906 94.6206C87.9116 95.2709 89.0361 95.4766 90.2023 95.0802Z" fill="white"/>
<path d="M89.0577 95.6736C88.202 95.6736 87.5204 95.341 87.3184 94.7469C87.0232 93.8779 87.883 92.8262 89.2756 92.3528C90.6686 91.8789 91.9905 92.1893 92.2859 93.0581C92.581 93.927 91.7214 94.9787 90.3286 95.4523C89.888 95.6022 89.4539 95.6736 89.0575 95.6736H89.0577ZM90.5629 92.9162C90.2555 92.9162 89.8994 92.9712 89.5285 93.0975C88.5331 93.436 87.9335 94.114 88.0626 94.4939C88.1919 94.8735 89.0801 95.0463 90.0757 94.7078C91.0711 94.3691 91.6707 93.6911 91.5416 93.3113C91.4604 93.0729 91.0803 92.9162 90.5629 92.9162Z" fill="#242D35"/>
<path d="M90.941 94.159C91.3404 94.159 91.6642 93.8351 91.6642 93.4356C91.6642 93.036 91.3404 92.7122 90.941 92.7122C90.5416 92.7122 90.2178 93.036 90.2178 93.4356C90.2178 93.8351 90.5416 94.159 90.941 94.159Z" fill="#242D35"/>
<path d="M91.893 100.126C91.0379 100.126 90.1346 99.8154 89.5339 99.2534C89.4577 99.1822 89.413 99.0836 89.4095 98.9794C89.406 98.8752 89.444 98.7738 89.5152 98.6977C89.5864 98.6215 89.6849 98.5767 89.7891 98.5732C89.8933 98.5697 89.9946 98.6078 90.0708 98.679C90.7466 99.3114 92.0261 99.5321 92.809 99.151C92.9028 99.1055 93.0108 99.0991 93.1093 99.1332C93.2078 99.1672 93.2888 99.2389 93.3346 99.3326C93.4293 99.5278 93.3481 99.7631 93.153 99.8582C92.7807 100.039 92.3436 100.126 91.893 100.126ZM91.0497 104.906C90.161 105.453 87.9565 105.453 86.6747 104.906C86.1193 104.669 85.3417 105.505 87.0849 106.094C88.1992 106.471 89.3428 106.142 89.8534 106.966C90.648 108.248 92.4327 108.537 93.048 107.793L91.0497 104.906Z" fill="#242D35"/>
<path d="M92.0198 108.59C91.9634 108.59 91.9064 108.588 91.8484 108.584C90.9115 108.52 90.0191 107.98 89.5193 107.174C89.3084 106.833 88.9203 106.777 88.2525 106.708C87.8577 106.666 87.4103 106.62 86.9591 106.467C86.1557 106.195 85.7088 105.829 85.6306 105.379C85.5836 105.107 85.6884 104.84 85.911 104.663C86.1655 104.462 86.5258 104.415 86.8292 104.545C87.9938 105.042 90.0576 105.056 90.8439 104.572C90.9295 104.519 91.0321 104.501 91.1306 104.521C91.2291 104.542 91.3158 104.6 91.373 104.683L93.3711 107.57C93.4199 107.64 93.4443 107.725 93.4406 107.81C93.4369 107.896 93.4054 107.978 93.3507 108.044C93.06 108.395 92.5811 108.59 92.0198 108.59V108.59ZM86.4163 105.269C86.4637 105.35 86.6637 105.537 87.2109 105.722C87.5792 105.847 87.9628 105.887 88.334 105.925C89.0364 105.999 89.763 106.074 90.1875 106.759C90.6287 107.471 91.3869 107.764 91.9021 107.8C92.1367 107.816 92.3496 107.784 92.5129 107.711L90.9184 105.407C89.8023 105.848 87.7787 105.805 86.5207 105.268C86.5041 105.261 86.4863 105.258 86.4684 105.258C86.4505 105.258 86.4327 105.262 86.4163 105.269Z" fill="#242D35"/>
<path d="M170.499 167.739C170.408 168.926 170.08 171.325 169.613 174.413C169.591 174.558 169.567 174.708 169.544 174.857C167.594 187.591 163.424 211.169 163.424 211.169H148.043C148.043 211.169 150.812 182.402 150.504 171.478L116.514 169.17L84.3675 255.938H67.4482L92.9814 159.939L126.236 150.094C126.236 150.094 135.108 150.574 144.36 151.623C145.777 151.785 147.057 151.93 148.222 152.062C152.157 152.508 154.763 152.807 156.759 153.068C167.732 154.511 170.961 161.694 170.499 167.739Z" fill="url(#paint8_linear_1_26670)"/>
<path d="M170.499 167.739C170.408 168.926 170.08 171.325 169.612 174.413C169.591 174.558 169.567 174.708 169.544 174.857C167.462 172.184 168.96 168.466 167.156 166.274C166.613 165.612 165.831 165.174 165.303 164.499C164.601 163.607 164.428 162.422 164.029 161.36C161.869 155.6 155.665 156.52 153.959 156.42C149.46 156.161 149.279 153.77 148.222 152.062C152.157 152.508 154.763 152.807 156.759 153.068C167.732 154.511 170.961 161.694 170.499 167.739ZM67.4489 255.938L93.4422 159.017L96.0315 158.454L69.3201 255.938H67.4489Z" fill="white"/>
<path d="M84.3678 256.331H67.4491C67.3889 256.331 67.3296 256.317 67.2756 256.291C67.2216 256.264 67.1745 256.225 67.1378 256.177C67.1011 256.13 67.0758 256.074 67.064 256.015C67.0521 255.956 67.0539 255.895 67.0692 255.837L92.6011 159.839C92.6183 159.774 92.6521 159.714 92.6991 159.666C92.7461 159.617 92.8047 159.582 92.8693 159.563L126.124 149.717C126.169 149.704 126.216 149.699 126.263 149.702C126.458 149.715 145.8 151.079 155.169 152.331C166.974 153.909 171.62 159.046 170.704 169.508C170.18 175.497 163.875 210.882 163.811 211.239C163.795 211.33 163.747 211.412 163.676 211.471C163.606 211.53 163.516 211.563 163.424 211.563H148.043C147.989 211.563 147.935 211.551 147.884 211.529C147.834 211.507 147.789 211.475 147.753 211.434C147.716 211.394 147.688 211.346 147.67 211.294C147.653 211.242 147.647 211.187 147.652 211.132C147.68 210.848 150.356 182.88 150.12 171.846L116.78 169.582L84.7363 256.075C84.7085 256.15 84.6582 256.215 84.5923 256.261C84.5265 256.307 84.4481 256.331 84.3678 256.331ZM67.9605 255.545H84.0945L116.145 169.034C116.174 168.954 116.228 168.886 116.3 168.839C116.371 168.793 116.455 168.772 116.54 168.778L150.531 171.086C150.629 171.092 150.72 171.135 150.788 171.205C150.856 171.276 150.895 171.369 150.897 171.467C151.182 181.559 148.818 207.138 148.476 210.776H163.095C163.734 207.184 169.428 175.087 169.922 169.439C170.803 159.369 166.499 154.638 155.065 153.111C146.007 151.9 127.577 150.583 126.279 150.491L93.3043 160.254L67.9605 255.545Z" fill="#242D35"/>
<path d="M92.2269 157.207L125.95 147.858L126.858 151.134L93.1349 160.483L92.2269 157.207Z" fill="url(#paint9_linear_1_26670)"/>
<path d="M93.1351 160.877C93.0491 160.877 92.9656 160.848 92.8972 160.796C92.8288 160.744 92.7793 160.671 92.7564 160.588L91.8484 157.312C91.8345 157.262 91.8306 157.21 91.8369 157.159C91.8432 157.107 91.8595 157.058 91.885 157.013C91.9104 156.968 91.9445 156.928 91.9852 156.897C92.026 156.865 92.0726 156.841 92.1224 156.828L125.845 147.478C125.946 147.45 126.053 147.464 126.144 147.515C126.235 147.567 126.301 147.652 126.329 147.752L127.237 151.028C127.251 151.078 127.255 151.13 127.249 151.182C127.242 151.233 127.226 151.282 127.201 151.327C127.175 151.372 127.141 151.412 127.1 151.444C127.06 151.475 127.013 151.499 126.963 151.512L93.2402 160.862C93.206 160.872 93.1706 160.877 93.1351 160.877ZM92.7112 157.481L93.4092 159.999L126.374 150.86L125.676 148.341L92.7112 157.481Z" fill="#242D35"/>
<path d="M110.642 152.102L116.628 150.442L117.536 153.719L111.549 155.378L110.642 152.102Z" fill="white"/>
<path d="M111.55 155.771C111.464 155.771 111.38 155.743 111.312 155.691C111.243 155.639 111.194 155.566 111.171 155.483L110.263 152.206C110.249 152.156 110.245 152.104 110.251 152.053C110.258 152.002 110.274 151.952 110.3 151.907C110.325 151.862 110.359 151.823 110.4 151.791C110.44 151.759 110.487 151.736 110.537 151.722L116.523 150.063C116.573 150.049 116.625 150.045 116.676 150.051C116.727 150.058 116.777 150.074 116.822 150.099C116.867 150.125 116.906 150.159 116.938 150.2C116.97 150.24 116.993 150.287 117.007 150.337L117.915 153.613C117.943 153.714 117.929 153.821 117.878 153.912C117.827 154.003 117.741 154.069 117.641 154.097L111.655 155.757C111.62 155.766 111.585 155.771 111.55 155.771ZM111.126 152.375L111.824 154.894L117.052 153.444L116.354 150.926L111.126 152.375H111.126ZM110.054 172.102C109.962 172.102 109.874 172.071 109.803 172.013C109.733 171.955 109.684 171.875 109.667 171.785C109.649 171.696 109.663 171.603 109.706 171.522C109.75 171.442 109.82 171.379 109.904 171.345L125.946 164.765C125.994 164.746 126.045 164.736 126.097 164.736C126.148 164.736 126.199 164.747 126.247 164.766C126.295 164.786 126.338 164.816 126.374 164.852C126.411 164.889 126.439 164.932 126.459 164.98C126.479 165.028 126.489 165.079 126.488 165.131C126.488 165.182 126.478 165.233 126.458 165.281C126.438 165.329 126.409 165.372 126.372 165.408C126.336 165.445 126.292 165.473 126.244 165.493L110.202 172.073C110.154 172.093 110.103 172.102 110.053 172.102H110.054Z" fill="#242D35"/>
<path d="M119.897 167.948C119.819 167.948 119.742 167.925 119.677 167.881C119.612 167.837 119.561 167.774 119.532 167.701L114.312 154.657C114.275 154.561 114.277 154.453 114.318 154.359C114.359 154.264 114.436 154.189 114.532 154.15C114.628 154.112 114.736 154.113 114.831 154.153C114.926 154.193 115.002 154.269 115.042 154.365L120.262 167.409C120.286 167.468 120.295 167.533 120.288 167.597C120.281 167.661 120.259 167.722 120.223 167.775C120.187 167.829 120.138 167.872 120.082 167.902C120.025 167.932 119.962 167.948 119.897 167.948H119.897Z" fill="#242D35"/>
<path d="M113.283 165.179C113.205 165.179 113.128 165.155 113.063 165.111C112.998 165.067 112.947 165.005 112.918 164.931L109.365 156.028C109.346 155.98 109.336 155.929 109.337 155.877C109.337 155.826 109.348 155.775 109.369 155.727C109.389 155.68 109.419 155.637 109.455 155.601C109.492 155.565 109.536 155.536 109.584 155.517C109.632 155.498 109.683 155.489 109.735 155.489C109.786 155.49 109.837 155.501 109.885 155.521C109.932 155.541 109.975 155.571 110.011 155.608C110.047 155.645 110.076 155.689 110.095 155.737L113.506 164.283L117.937 162.633C117.986 162.614 118.038 162.605 118.09 162.606C118.142 162.607 118.193 162.619 118.241 162.64C118.288 162.662 118.331 162.692 118.367 162.73C118.402 162.768 118.43 162.813 118.448 162.862C118.467 162.911 118.475 162.963 118.473 163.015C118.471 163.067 118.458 163.118 118.436 163.165C118.414 163.212 118.383 163.255 118.344 163.29C118.306 163.325 118.261 163.352 118.212 163.369L113.42 165.154C113.376 165.171 113.33 165.179 113.283 165.179ZM98.3699 218.143C98.9025 213.554 96.1783 209.389 96.8086 206.392C97.8259 201.554 102.594 202.247 109.326 188.57C105.759 197.951 98.3699 218.143 98.3699 218.143Z" fill="#242D35"/>
<path d="M98.3703 218.536C98.3148 218.536 98.26 218.525 98.2094 218.502C98.1588 218.479 98.1135 218.446 98.0767 218.405C98.0398 218.363 98.0121 218.314 97.9954 218.261C97.9787 218.209 97.9734 218.153 97.9798 218.098C98.251 215.759 97.6343 213.477 97.0903 211.465C96.584 209.593 96.1058 207.824 96.424 206.311C96.8788 204.148 98.0623 203.011 99.7006 201.436C101.857 199.364 105.117 196.231 108.974 188.396C109.018 188.306 109.096 188.236 109.191 188.201C109.286 188.167 109.39 188.17 109.483 188.21C109.575 188.25 109.649 188.325 109.688 188.418C109.727 188.511 109.729 188.615 109.694 188.71C106.168 197.981 98.8132 218.076 98.7393 218.278C98.7117 218.354 98.6615 218.419 98.5955 218.465C98.5295 218.511 98.451 218.536 98.3705 218.536H98.3703ZM106.985 193.674C104.242 198.163 101.918 200.396 100.245 202.003C98.6513 203.535 97.5981 204.547 97.1932 206.473C96.914 207.801 97.3473 209.404 97.8491 211.259C98.2329 212.68 98.6519 214.23 98.7875 215.862C100.386 211.504 104.105 201.382 106.985 193.674ZM79.446 250.947C79.384 250.947 79.323 250.932 79.2678 250.904C79.2127 250.875 79.1649 250.835 79.1285 250.784C79.0921 250.734 79.068 250.676 79.0581 250.615C79.0483 250.554 79.0531 250.491 79.072 250.432L103.373 175.203C103.405 175.104 103.476 175.021 103.568 174.974C103.614 174.95 103.665 174.936 103.716 174.932C103.767 174.928 103.819 174.934 103.868 174.95C103.918 174.966 103.963 174.991 104.002 175.025C104.042 175.058 104.074 175.099 104.097 175.145C104.121 175.191 104.135 175.241 104.139 175.293C104.143 175.344 104.137 175.396 104.122 175.445L79.8202 250.674C79.7946 250.753 79.7446 250.822 79.6775 250.871C79.6103 250.92 79.5291 250.947 79.446 250.947ZM152.812 206.486C152.758 206.486 152.704 206.475 152.654 206.453C152.605 206.431 152.56 206.4 152.523 206.36C152.486 206.32 152.458 206.273 152.44 206.222C152.422 206.171 152.415 206.116 152.42 206.062L154.111 184.524C154.12 184.42 154.169 184.324 154.248 184.256C154.327 184.189 154.43 184.155 154.534 184.163C154.585 184.167 154.636 184.181 154.682 184.204C154.728 184.228 154.769 184.26 154.802 184.299C154.836 184.339 154.861 184.384 154.877 184.433C154.893 184.482 154.899 184.534 154.895 184.585L153.203 206.124C153.196 206.222 153.151 206.314 153.078 206.381C153.006 206.448 152.911 206.486 152.812 206.486ZM150.504 171.478C154.452 171.734 156.554 173.58 156.349 176.093C156.144 178.606 150.812 187.58 149.569 193.015C150.094 183.683 150.607 176.811 150.504 171.478V171.478Z" fill="#242D35"/>
<path d="M149.57 193.408C149.516 193.408 149.463 193.397 149.414 193.376C149.365 193.355 149.321 193.324 149.284 193.285C149.247 193.246 149.219 193.2 149.2 193.15C149.182 193.1 149.174 193.046 149.177 192.993C149.283 191.103 149.389 189.314 149.489 187.618C149.882 180.972 150.193 175.723 150.111 171.485C150.11 171.431 150.121 171.377 150.142 171.327C150.162 171.276 150.194 171.231 150.233 171.193C150.272 171.156 150.319 171.127 150.37 171.108C150.421 171.09 150.476 171.082 150.53 171.086C152.928 171.241 154.751 171.968 155.803 173.187C156.507 174.002 156.831 175.018 156.741 176.125C156.64 177.36 155.49 179.814 154.035 182.92C152.429 186.345 150.61 190.227 149.952 193.103C149.933 193.189 149.884 193.267 149.814 193.322C149.745 193.378 149.659 193.408 149.57 193.408L149.57 193.408ZM150.904 171.905C150.958 176.095 150.655 181.226 150.274 187.664C150.232 188.374 150.189 189.1 150.146 189.843C151.015 187.51 152.219 184.941 153.323 182.587C154.632 179.793 155.868 177.155 155.957 176.061C156.031 175.156 155.779 174.362 155.208 173.701C154.357 172.715 152.874 172.097 150.904 171.905ZM156.503 172.256C156.423 172.256 156.344 172.231 156.278 172.185C156.212 172.139 156.162 172.074 156.134 171.999C156.106 171.923 156.102 171.841 156.123 171.763C156.143 171.685 156.187 171.616 156.248 171.564C156.611 171.254 156.625 171.119 156.625 171.118C156.589 171.056 156.318 170.927 156.173 170.857C155.832 170.695 155.445 170.51 155.385 170.114C155.328 169.737 155.625 169.46 155.723 169.37C156.094 169.025 156.137 168.758 156.076 168.662C156.012 168.563 155.745 168.475 155.294 168.662C154.744 168.889 154.159 168.792 153.836 168.42C153.546 168.085 153.535 167.611 153.806 167.151C153.859 167.062 153.913 166.94 153.878 166.868C153.797 166.704 153.4 166.474 151.971 166.306L133.634 164.948C133.582 164.944 133.532 164.93 133.486 164.907C133.44 164.883 133.399 164.851 133.365 164.812C133.331 164.773 133.306 164.728 133.289 164.679C133.273 164.63 133.267 164.578 133.271 164.527C133.275 164.475 133.288 164.425 133.312 164.379C133.335 164.333 133.367 164.291 133.406 164.258C133.445 164.224 133.49 164.198 133.539 164.182C133.588 164.166 133.64 164.16 133.692 164.163L152.046 165.523C153.355 165.677 154.277 165.904 154.582 166.518C154.688 166.733 154.757 167.085 154.483 167.55C154.439 167.625 154.346 167.808 154.43 167.904C154.512 167.999 154.737 168.042 154.994 167.936C155.739 167.628 156.423 167.747 156.737 168.238C156.983 168.621 156.985 169.27 156.258 169.946C156.242 169.961 156.226 169.976 156.211 169.993C156.294 170.044 156.424 170.106 156.511 170.148C156.881 170.325 157.342 170.545 157.404 171.021C157.467 171.496 157.065 171.9 156.758 172.162C156.687 172.223 156.597 172.256 156.503 172.256L156.503 172.256Z" fill="#242D35"/>
<path d="M108.592 160.554C103.337 163.222 95.7485 164.452 90.7508 162.862C90.4363 159.707 89.8782 156.43 89.0606 153.102V153.098C87.7596 147.81 85.8021 142.4 83.1136 137.177C80.4545 132.005 77.0821 127.016 72.9235 122.506C72.5422 122.092 72.1531 121.681 71.7561 121.274C74.4722 119.22 77.7896 117.354 80.8673 115.911C82.3216 115.229 83.7228 114.641 84.9826 114.172C89.3122 116.985 94.5241 122.85 98.9932 130.82C103.523 138.901 107.289 149.143 108.592 160.554Z" fill="url(#paint10_linear_1_26670)"/>
<path d="M80.8673 115.911C80.2344 117.116 79.1869 118.276 78.3615 118.996C77.4221 119.817 76.1721 120.167 75.0873 120.782C74.2756 121.244 73.574 121.842 72.9235 122.506C72.5422 122.092 72.1531 121.681 71.7561 121.274C74.4722 119.22 77.7896 117.354 80.8673 115.911Z" fill="white"/>
<path d="M95.9187 163.958C93.9749 163.958 92.1625 163.724 90.6317 163.237C90.5585 163.213 90.4938 163.169 90.4454 163.11C90.3971 163.05 90.3673 162.977 90.3597 162.901C90.0409 159.703 89.4753 156.438 88.6788 153.196C88.6766 153.187 88.6748 153.178 88.6734 153.17C87.3154 147.657 85.3273 142.337 82.7642 137.357C79.7203 131.435 75.922 126.116 71.4747 121.548C71.4358 121.508 71.4058 121.461 71.3868 121.408C71.3677 121.356 71.36 121.3 71.3642 121.244C71.3684 121.189 71.3844 121.135 71.4111 121.086C71.4378 121.037 71.4746 120.994 71.5191 120.96C75.73 117.775 81.164 115.175 84.8454 113.803C84.903 113.782 84.9647 113.774 85.0257 113.781C85.0867 113.788 85.1453 113.809 85.1968 113.842C89.9222 116.912 95.0758 123.03 99.336 130.628C102.908 136.999 107.48 147.355 108.983 160.51C108.992 160.589 108.976 160.67 108.938 160.741C108.9 160.811 108.841 160.869 108.77 160.905C104.888 162.875 100.101 163.958 95.9187 163.958V163.958ZM91.1155 162.562C95.7033 163.911 102.776 162.985 108.17 160.326C106.651 147.431 102.162 137.276 98.6503 131.012C94.5619 123.722 89.4476 117.609 84.9335 114.61C81.4138 115.94 76.3677 118.362 72.349 121.322C76.7171 125.873 80.4547 131.144 83.463 136.998C86.0576 142.038 88.0693 147.424 89.4423 153.004C89.4444 153.013 89.4464 153.022 89.4478 153.031C90.2286 156.214 90.7893 159.419 91.1153 162.563L91.1155 162.562Z" fill="#242D35"/>
<path d="M98.9933 130.82L98.9913 130.822L87.5198 127.171L88.2902 120.786L82.4454 119.094L84.9826 114.172C89.3122 116.985 94.5242 122.85 98.9933 130.82Z" fill="url(#paint11_linear_1_26670)"/>
<path d="M98.9913 131.215C98.9514 131.215 98.9113 131.209 98.8722 131.196L87.4007 127.546C87.3135 127.518 87.2388 127.461 87.1893 127.384C87.1398 127.307 87.1188 127.215 87.1297 127.124L87.86 121.071L82.3363 119.471C82.2806 119.455 82.2291 119.427 82.1856 119.388C82.142 119.35 82.1076 119.302 82.0846 119.249C82.0617 119.196 82.0509 119.138 82.053 119.08C82.055 119.022 82.0699 118.965 82.0966 118.914L84.6336 113.991C84.6588 113.942 84.6939 113.899 84.7368 113.865C84.7796 113.831 84.8291 113.806 84.8822 113.791C84.9353 113.777 84.9908 113.775 85.045 113.783C85.0993 113.792 85.1511 113.812 85.1972 113.842C89.9226 116.912 95.0762 123.03 99.3364 130.627C99.3783 130.702 99.3947 130.788 99.383 130.873C99.3713 130.958 99.3322 131.037 99.2715 131.098L99.2696 131.1C99.1959 131.173 99.0959 131.215 98.9917 131.215H98.9913ZM87.9488 126.895L98.1549 130.143C94.2142 123.342 89.4148 117.664 85.1306 114.742L83.0138 118.849L88.3995 120.409C88.489 120.435 88.5665 120.492 88.6179 120.569C88.6693 120.647 88.6915 120.741 88.6803 120.833L87.9488 126.895ZM89.0606 153.098C87.7596 147.81 85.8021 142.4 83.1136 137.177C83.1215 137.159 83.1274 137.144 83.1352 137.128C85.1359 136.21 88.021 135.748 89.6345 138.197C91.0554 140.358 87.9836 147.629 89.0606 153.098Z" fill="#242D35"/>
<path d="M89.0602 153.491C88.9724 153.491 88.8871 153.462 88.818 153.407C88.7489 153.353 88.6999 153.277 88.6789 153.192C87.3209 147.671 85.3308 142.343 82.7642 137.357C82.7372 137.305 82.7224 137.247 82.7207 137.188C82.719 137.129 82.7306 137.071 82.7545 137.017C82.7673 136.987 82.775 136.97 82.7836 136.952C82.8237 136.872 82.8899 136.808 82.9713 136.771C84.087 136.259 87.8887 134.833 89.9625 137.981C90.7386 139.161 90.3687 141.407 89.9008 144.25C89.435 147.078 88.9069 150.284 89.4462 153.022C89.4574 153.079 89.4558 153.138 89.4416 153.194C89.4274 153.251 89.4009 153.303 89.364 153.348C89.3271 153.393 89.2807 153.429 89.2282 153.454C89.1757 153.479 89.1183 153.491 89.0602 153.491ZM83.6375 137.339C85.591 141.184 87.2065 145.228 88.4596 149.403C88.5498 147.615 88.8483 145.803 89.1253 144.122C89.5305 141.661 89.9131 139.336 89.3061 138.414C87.7605 136.067 85.0362 136.766 83.6375 137.339Z" fill="#242D35"/>
<path d="M161.655 122.632C158.039 125.587 146.447 133.07 133.683 132.844C130.155 132.783 126.537 132.131 122.974 130.633L122.978 130.637C125.474 134.561 128.125 143.173 129.125 147.633C129.615 149.817 129.487 150.533 128.318 151.863C126.934 153.44 123.896 154.979 120.936 155.555C118.884 142.801 115.354 133.263 110.29 125.799C106.436 120.12 101.692 115.642 96.0316 111.864C108.543 109.021 119.104 114.215 127.976 115.612C128.072 115.628 128.168 115.642 128.264 115.656C129.617 115.856 130.927 115.966 132.201 115.941C135.906 115.866 139.296 115.465 142.279 114.919C142.291 114.917 142.305 114.913 142.316 114.911C148.666 113.745 153.163 111.929 154.888 111.248C156.502 113.786 161.655 122.632 161.655 122.632Z" fill="url(#paint12_linear_1_26670)"/>
<path d="M120.936 155.948C120.842 155.948 120.752 155.915 120.681 155.855C120.61 155.794 120.563 155.71 120.548 155.618C118.561 143.269 115.099 133.588 109.964 126.02C106.305 120.629 101.676 116.105 95.8132 112.191C95.7493 112.148 95.6994 112.088 95.6695 112.017C95.6396 111.946 95.6311 111.868 95.6451 111.793C95.659 111.717 95.6948 111.647 95.748 111.592C95.8011 111.536 95.8694 111.498 95.9443 111.481C105.029 109.417 113.076 111.541 120.176 113.414C122.944 114.144 125.559 114.834 128.037 115.224C128.132 115.24 128.226 115.253 128.32 115.267C129.755 115.48 131.021 115.574 132.193 115.548C135.525 115.481 138.895 115.139 142.208 114.532C142.224 114.529 142.239 114.525 142.254 114.523C148.372 113.399 152.727 111.68 154.586 110.945L154.744 110.883C154.829 110.85 154.923 110.847 155.01 110.875C155.097 110.903 155.171 110.961 155.22 111.038C156.819 113.553 161.943 122.346 161.995 122.435C162.042 122.516 162.058 122.611 162.042 122.703C162.025 122.795 161.976 122.878 161.904 122.937C161.382 123.363 149.116 133.244 134.265 133.244C134.069 133.244 133.873 133.242 133.676 133.238C130.256 133.179 126.97 132.568 123.892 131.421C126.203 135.652 128.558 143.311 129.509 147.548C130.025 149.852 129.857 150.707 128.612 152.124C127.155 153.784 124.029 155.355 121.011 155.942C120.986 155.947 120.961 155.949 120.935 155.949L120.936 155.948ZM97.016 112.057C102.604 115.908 107.059 120.339 110.615 125.579C115.759 133.159 119.242 142.816 121.258 155.086C123.957 154.481 126.753 153.051 128.022 151.604C129.1 150.378 129.207 149.797 128.742 147.719C127.724 143.181 125.084 134.685 122.649 130.853C122.605 130.787 122.582 130.709 122.583 130.63C122.584 130.55 122.609 130.473 122.655 130.408C122.706 130.334 122.78 130.281 122.866 130.256C122.952 130.231 123.044 130.236 123.126 130.27C126.415 131.653 129.969 132.387 133.689 132.451C145.335 132.655 156.568 126.178 161.145 122.538C160.273 121.044 156.298 114.243 154.729 111.734C152.773 112.506 148.435 114.187 142.387 115.297L142.347 115.306C138.994 115.92 135.583 116.266 132.208 116.334C130.992 116.356 129.683 116.263 128.207 116.045C128.108 116.031 128.01 116.016 127.912 116C125.397 115.604 122.763 114.909 119.975 114.173C113.198 112.386 105.548 110.367 97.0156 112.056L97.016 112.057Z" fill="#242D35"/>
<path d="M110.618 118.966L110.29 125.799C106.436 120.12 101.692 115.642 96.0316 111.864C96.4168 111.889 102.824 113.222 102.824 113.222L102.721 115.274L110.618 118.966Z" fill="url(#paint13_linear_1_26670)"/>
<path d="M110.29 126.192C110.226 126.192 110.162 126.176 110.106 126.146C110.049 126.116 110.001 126.073 109.965 126.02C106.306 120.628 101.677 116.105 95.8134 112.191C95.7413 112.143 95.6871 112.072 95.6592 111.99C95.6313 111.908 95.6313 111.819 95.6591 111.737C95.6869 111.655 95.7411 111.584 95.8131 111.536C95.8851 111.488 95.971 111.465 96.0575 111.471C96.4501 111.497 101.829 112.613 102.904 112.837C103.093 112.876 103.226 113.048 103.216 113.241L103.127 115.03L110.784 118.61C110.855 118.643 110.914 118.696 110.955 118.763C110.995 118.83 111.014 118.907 111.011 118.985L110.682 125.818C110.678 125.919 110.634 126.014 110.561 126.083C110.488 126.153 110.391 126.192 110.29 126.192ZM97.7801 112.592C102.677 116.078 106.679 120.035 109.953 124.626L110.213 119.211L102.555 115.63C102.484 115.597 102.425 115.544 102.385 115.477C102.345 115.41 102.325 115.333 102.329 115.255L102.414 113.538C100.871 113.218 99.3261 112.902 97.7802 112.592L97.7801 112.592ZM133.683 132.844C130.155 132.783 126.537 132.131 122.974 130.633C121.451 127.938 120.132 125.581 119.261 124.028C118.711 123.047 117.634 120.13 121.588 120.812C124.562 121.325 125.342 124.46 125.639 125.992C126.305 129.426 129.123 131.698 133.683 132.844Z" fill="#242D35"/>
<path d="M133.683 133.238H133.676C129.856 133.171 126.204 132.417 122.822 130.995C122.741 130.962 122.675 130.902 122.632 130.827C121.346 128.552 120.206 126.518 119.358 125.004L118.919 124.221C118.733 123.889 117.844 122.18 118.618 121.086C119.113 120.385 120.136 120.163 121.655 120.425C123.924 120.816 125.394 122.664 126.025 125.917C126.647 129.124 129.256 131.327 133.779 132.463C133.872 132.487 133.953 132.543 134.008 132.622C134.062 132.701 134.086 132.798 134.074 132.893C134.062 132.988 134.016 133.076 133.944 133.139C133.872 133.203 133.779 133.238 133.683 133.238L133.683 133.238ZM123.25 130.322C125.606 131.299 128.098 131.944 130.687 132.25C127.612 130.894 125.787 128.822 125.253 126.067C124.683 123.126 123.463 121.534 121.522 121.199C120.343 120.996 119.561 121.114 119.26 121.539C118.844 122.128 119.303 123.299 119.604 123.836L120.044 124.62C121.109 126.522 122.178 128.423 123.25 130.322H123.25ZM141.609 118.968C142.584 121.132 137.877 121.537 135.414 119.308C133.964 117.993 130.601 116.051 128.264 115.656C129.617 115.856 130.927 115.966 132.201 115.941C135.906 115.866 139.296 115.465 142.279 114.918C139.758 115.455 140.856 117.295 141.609 118.968Z" fill="#242D35"/>
<path d="M139.457 121.184C138.034 121.184 136.331 120.669 135.151 119.599C133.802 118.377 130.506 116.434 128.199 116.043C128.098 116.025 128.007 115.968 127.948 115.884C127.888 115.8 127.863 115.696 127.88 115.595C127.896 115.493 127.951 115.402 128.034 115.34C128.117 115.279 128.22 115.253 128.322 115.267C129.755 115.479 131.022 115.572 132.193 115.548C135.525 115.481 138.895 115.139 142.208 114.532C142.31 114.513 142.414 114.536 142.5 114.594C142.585 114.652 142.644 114.741 142.664 114.842C142.684 114.944 142.664 115.049 142.607 115.135C142.55 115.221 142.462 115.282 142.361 115.303C141.737 115.436 141.344 115.658 141.192 115.962C140.911 116.523 141.351 117.472 141.776 118.39C141.841 118.53 141.905 118.669 141.967 118.807C142.296 119.535 142.132 120.209 141.52 120.655C141.038 121.005 140.296 121.184 139.457 121.184H139.457ZM131.455 116.334C133.181 117.15 134.818 118.237 135.678 119.017C137.34 120.521 140.122 120.7 141.057 120.019C141.366 119.794 141.426 119.519 141.25 119.13C141.189 118.994 141.126 118.857 141.063 118.721C140.561 117.637 140.042 116.516 140.485 115.619C137.745 116.038 134.98 116.277 132.209 116.334C131.958 116.339 131.706 116.339 131.455 116.334L131.455 116.334ZM167.679 108.077C167.583 108.077 167.49 108.042 167.418 107.978C167.347 107.914 167.301 107.826 167.29 107.73C167.278 107.634 167.303 107.538 167.358 107.459C167.413 107.38 167.495 107.324 167.588 107.302C167.941 107.218 169.699 106.717 169.645 105.107C169.642 105.013 169.673 104.921 169.732 104.848C169.791 104.774 169.875 104.724 169.968 104.708C171.228 104.478 172.456 103.86 172.983 103.531C173.026 103.503 173.075 103.485 173.126 103.476C173.177 103.467 173.229 103.469 173.279 103.481C173.33 103.492 173.377 103.514 173.419 103.544C173.461 103.574 173.497 103.612 173.524 103.655C173.552 103.699 173.57 103.748 173.579 103.799C173.587 103.85 173.586 103.902 173.574 103.952C173.562 104.002 173.541 104.05 173.511 104.092C173.481 104.134 173.443 104.17 173.399 104.197C172.869 104.529 171.686 105.13 170.423 105.417C170.295 106.929 168.949 107.786 167.771 108.067C167.741 108.074 167.71 108.078 167.679 108.078L167.679 108.077Z" fill="#242D35"/>
<path d="M169.749 107.907C169.422 107.907 169.1 107.811 168.933 107.544C168.745 107.243 168.824 106.867 169.168 106.428C169.2 106.387 169.239 106.353 169.284 106.327C169.329 106.302 169.379 106.285 169.43 106.279C169.482 106.273 169.534 106.276 169.584 106.29C169.634 106.304 169.68 106.328 169.721 106.36C169.762 106.392 169.796 106.431 169.821 106.477C169.847 106.522 169.863 106.572 169.869 106.623C169.875 106.674 169.871 106.727 169.857 106.776C169.842 106.826 169.819 106.873 169.786 106.913C169.736 106.976 169.691 107.043 169.653 107.114C169.763 107.125 169.874 107.118 169.981 107.094C171.026 106.871 173.207 105.872 173.922 105.065C173.992 104.988 174.089 104.942 174.192 104.937C174.295 104.931 174.396 104.966 174.474 105.035C174.551 105.103 174.598 105.2 174.605 105.303C174.612 105.406 174.578 105.508 174.511 105.586C173.659 106.547 171.313 107.613 170.146 107.863C170.016 107.892 169.883 107.906 169.749 107.907Z" fill="#242D35"/>
<path d="M170.553 109.109C170.059 109.109 169.499 108.891 169.31 108.438C169.211 108.201 169.145 107.721 169.815 107.174C169.896 107.109 169.999 107.078 170.103 107.089C170.206 107.1 170.301 107.151 170.367 107.232C170.432 107.312 170.463 107.415 170.453 107.519C170.443 107.622 170.392 107.717 170.312 107.784C170.054 107.994 170.029 108.12 170.035 108.135C170.069 108.216 170.346 108.352 170.637 108.319C172.222 108.151 174.19 107.227 174.826 106.544C174.897 106.468 174.995 106.423 175.1 106.419C175.204 106.416 175.305 106.453 175.381 106.524C175.458 106.596 175.503 106.694 175.506 106.798C175.51 106.902 175.472 107.004 175.401 107.08C174.657 107.88 172.551 108.906 170.72 109.101C170.665 109.106 170.609 109.11 170.553 109.109Z" fill="#242D35"/>
<path d="M171.905 110.476C170.959 110.476 170.085 110.114 169.852 109.529C169.784 109.357 169.63 108.764 170.513 108.353C170.56 108.332 170.61 108.319 170.662 108.317C170.714 108.315 170.765 108.323 170.814 108.341C170.862 108.358 170.907 108.385 170.945 108.42C170.983 108.455 171.013 108.497 171.035 108.544C171.057 108.591 171.069 108.642 171.072 108.693C171.074 108.745 171.066 108.796 171.048 108.845C171.03 108.893 171.003 108.938 170.968 108.976C170.933 109.014 170.891 109.045 170.845 109.066C170.617 109.172 170.581 109.253 170.58 109.254C170.587 109.259 170.645 109.347 170.829 109.447C171.241 109.672 172.022 109.803 172.766 109.555C172.864 109.524 172.971 109.533 173.063 109.58C173.155 109.626 173.225 109.708 173.258 109.806C173.291 109.904 173.283 110.011 173.238 110.104C173.192 110.196 173.112 110.267 173.014 110.301C172.656 110.42 172.275 110.476 171.905 110.476L171.905 110.476Z" fill="#242D35"/>
<path d="M84.2908 112.556L84.0632 114.525L89.7125 119.44L93.8269 113.671L84.2908 112.556Z" fill="white"/>
<path d="M89.7125 119.834C89.6184 119.834 89.5266 119.799 89.4545 119.737L83.8052 114.822C83.757 114.78 83.7197 114.727 83.6967 114.668C83.6736 114.608 83.6654 114.544 83.6727 114.48L83.9003 112.511C83.9123 112.407 83.965 112.312 84.0467 112.248C84.1283 112.183 84.2317 112.153 84.3364 112.165L93.8723 113.281C93.9401 113.289 94.0048 113.314 94.0599 113.355C94.1149 113.395 94.1584 113.449 94.1861 113.512C94.2138 113.574 94.2248 113.643 94.2178 113.711C94.2109 113.779 94.1864 113.844 94.1466 113.9L90.0323 119.669C89.9959 119.72 89.9479 119.761 89.8923 119.79C89.8366 119.819 89.7749 119.834 89.7123 119.834L89.7125 119.834ZM84.4773 114.365L89.6437 118.86L93.1203 113.985L84.6359 112.992L84.4771 114.365L84.4773 114.365Z" fill="#242D35"/>
<path d="M94.8535 110.402L93.8269 113.671L99.5946 114.671L97.941 111.517L94.8535 110.402Z" fill="white"/>
<path d="M99.5944 115.064C99.5722 115.064 99.5496 115.062 99.5272 115.059L93.7594 114.059C93.7043 114.049 93.6518 114.028 93.6055 113.996C93.5592 113.965 93.5201 113.924 93.491 113.876C93.4619 113.828 93.4433 113.774 93.4365 113.719C93.4297 113.663 93.4349 113.607 93.4517 113.553L94.4786 110.284C94.5106 110.182 94.5831 110.097 94.6792 110.05C94.7267 110.026 94.7784 110.012 94.8314 110.009C94.8843 110.006 94.9374 110.014 94.9872 110.032L98.0747 111.148C98.167 111.181 98.2435 111.248 98.2893 111.335L99.9427 114.489C99.9741 114.548 99.9895 114.615 99.9874 114.683C99.9853 114.751 99.9658 114.817 99.9308 114.874C99.8958 114.932 99.8465 114.98 99.7876 115.013C99.7287 115.047 99.6622 115.064 99.5946 115.064L99.5944 115.064ZM94.3363 113.361L98.8761 114.148L97.6639 111.835L95.1057 110.911L94.3363 113.361ZM81.4454 102.812C82.6492 101.939 82.0305 99.9707 80.4353 99.5598C78.7434 99.124 77.6815 97.2072 79.2921 95.5306C80.5481 94.223 82.727 95.3256 83.6146 97.704C84.6699 100.533 85.4781 99.5657 85.0887 97.9709C84.3679 95.0179 82.7127 93.2298 84.9317 91.7872C86.9825 90.4538 92.6656 90.3956 92.4682 85.7872C92.3144 82.1975 89.6997 81.2233 86.6236 81.2233C83.5475 81.2233 75.242 84.2488 76.0623 91.5821C71.3456 98.505 79.3949 104.3 81.4454 102.813V102.812Z" fill="#242D35"/>
<path d="M80.5972 103.441C79.4723 103.441 77.9855 102.721 76.6941 101.466C74.4356 99.2721 72.9927 95.5068 75.6566 91.4809C75.4175 89.0196 76.1366 86.8323 77.7955 84.977C80.3529 82.1166 84.4976 80.83 86.6234 80.83C90.6218 80.83 92.7206 82.4922 92.8607 85.7703C93.0168 89.4104 89.7534 90.4617 87.3706 91.2293C86.4939 91.512 85.6657 91.7786 85.1457 92.1169C83.8362 92.9684 84.0852 93.8328 84.7731 95.707C85.0074 96.3454 85.2731 97.0692 85.4706 97.8778C85.7221 98.9084 85.5368 99.7097 85.0091 99.8722C84.4009 100.058 83.8256 99.3946 83.2461 97.8418C82.7663 96.5556 81.8438 95.5977 80.8959 95.4015C80.5404 95.3278 80.0226 95.3378 79.5755 95.8035C78.9819 96.4213 78.7663 97.093 78.9517 97.7459C79.1425 98.4186 79.7633 98.9812 80.5332 99.1797C81.505 99.4299 82.2496 100.206 82.4301 101.157C82.5792 101.943 82.2972 102.681 81.6758 103.131C81.3859 103.341 81.0166 103.442 80.597 103.442L80.5972 103.441ZM86.6234 81.6163C84.7004 81.6163 80.7509 82.851 78.3813 85.5014C76.8458 87.2187 76.1969 89.25 76.4528 91.5383C76.4634 91.6319 76.44 91.7259 76.3869 91.8035C73.2417 96.4199 76.246 99.9352 77.2419 100.903C78.7954 102.412 80.5829 102.953 81.2147 102.494C81.5885 102.223 81.7503 101.789 81.6581 101.303C81.5341 100.65 81.0156 100.116 80.3372 99.9407C79.286 99.6698 78.4655 98.911 78.1958 97.9603C77.9336 97.0366 78.2223 96.0771 79.0089 95.2584C79.5519 94.6934 80.2784 94.4703 81.0557 94.6313C82.2803 94.8849 83.4019 96.0097 83.983 97.5668C84.3486 98.5469 84.6271 98.9137 84.7635 99.0462C84.8036 98.8821 84.8254 98.5491 84.7071 98.0643C84.5204 97.2985 84.2627 96.5969 84.0355 95.9778C83.3872 94.212 82.8276 92.6867 84.7179 91.4577C85.3259 91.0624 86.2023 90.7801 87.1301 90.4811C89.5093 89.7147 92.2061 88.8458 92.0758 85.8044C91.9533 82.9473 90.2209 81.6165 86.6238 81.6165L86.6234 81.6163Z" fill="#242D35"/>
<path d="M86.034 157.759C88.0976 157.682 93.2689 156.56 94.9805 156.067C96.98 155.49 98.6334 156.528 95.788 157.528C93.2011 158.437 91.9812 158.874 92.3273 159.528C92.6734 160.182 97.6417 159.504 98.8256 159.297C100.44 159.015 101.363 159.784 100.248 160.643C101.697 161.067 101.312 162.143 99.4024 162.836C96.2119 163.992 91.8276 163.72 91.6737 164.566C91.5198 165.412 94.3846 166.003 95.7495 166.246C97.4798 166.553 97.2146 167.963 95.5188 167.861C91.02 167.592 86.1751 164.643 84.0218 165.758C84.1371 162.835 84.7395 159.028 86.034 157.758V157.759Z" fill="url(#paint14_linear_1_26670)"/>
<path d="M95.6894 168.26C95.6267 168.26 95.562 168.258 95.4954 168.254C93.4499 168.132 91.3356 167.469 89.4704 166.884C87.303 166.204 85.2552 165.562 84.2026 166.108C84.1415 166.14 84.0731 166.155 84.0044 166.152C83.9357 166.149 83.8689 166.128 83.8109 166.091C83.7528 166.054 83.7055 166.002 83.6736 165.941C83.6417 165.88 83.6263 165.812 83.6291 165.743C83.6714 164.67 83.973 159.229 85.7587 157.478C85.8286 157.41 85.9215 157.37 86.0193 157.366C87.9995 157.292 93.0826 156.205 94.8714 155.689C96.1958 155.307 97.4519 155.553 97.6704 156.237C97.8074 156.667 97.6148 157.303 95.9181 157.899C94.3858 158.438 92.8023 158.994 92.6669 159.31C93.2552 159.588 96.7143 159.267 98.7578 158.91C99.892 158.713 100.796 158.971 101.059 159.571C101.129 159.729 101.22 160.082 100.929 160.506C101.415 160.796 101.512 161.164 101.519 161.391C101.541 162.079 100.818 162.741 99.5363 163.205C97.9261 163.789 96.04 164.016 94.5245 164.198C93.5498 164.316 92.3478 164.46 92.073 164.658C92.1505 164.768 92.6656 165.299 95.8181 165.859C97.0158 166.072 97.3713 166.731 97.3123 167.231C97.2518 167.741 96.719 168.26 95.6894 168.26V168.26ZM85.2291 165.116C86.4603 165.116 88.0011 165.599 89.7054 166.134C91.5275 166.705 93.5928 167.352 95.542 167.469C96.2084 167.508 96.5154 167.273 96.5315 167.138C96.548 166.999 96.289 166.741 95.6803 166.633C92.0443 165.987 91.5815 165.321 91.4294 165.102C91.2983 164.913 91.2488 164.704 91.2865 164.496C91.4166 163.781 92.4869 163.652 94.4304 163.418C95.9062 163.241 97.7427 163.019 99.268 162.466C100.347 162.075 100.739 161.614 100.733 161.416C100.729 161.305 100.544 161.14 100.138 161.021C100.068 161.001 100.005 160.961 99.9565 160.908C99.9077 160.854 99.8748 160.788 99.8614 160.716C99.848 160.645 99.8546 160.571 99.8804 160.503C99.9063 160.436 99.9504 160.376 100.008 160.332C100.295 160.111 100.364 159.942 100.34 159.888C100.277 159.745 99.7725 159.531 98.8928 159.685C98.2547 159.796 96.7131 160.015 95.2932 160.128C92.5532 160.344 92.1463 160.027 91.9799 159.712C91.8305 159.43 91.8704 159.189 91.9301 159.036C92.1784 158.402 93.1897 158.025 95.6575 157.157C96.617 156.82 96.8534 156.547 96.9055 156.465C96.7481 156.327 96.0327 156.172 95.0896 156.445C93.3163 156.956 88.346 158.02 86.2103 158.144C85.2004 159.289 84.6108 162.383 84.4433 165.195C84.6884 165.141 84.951 165.116 85.2292 165.116L85.2291 165.116Z" fill="#242D35"/>
<path d="M81.0608 157.017C83.1372 157.632 86.0338 157.759 86.0338 157.759L84.1045 168.797L76.6261 167.427L81.0608 157.017Z" fill="white"/>
<path d="M84.1047 169.19C84.0811 169.19 84.0575 169.188 84.0339 169.184L76.5554 167.814C76.4973 167.803 76.4424 167.78 76.3947 167.745C76.3469 167.71 76.3076 167.665 76.2797 167.613C76.2518 167.561 76.2359 167.504 76.2333 167.445C76.2307 167.386 76.2415 167.327 76.2647 167.273L80.6994 156.863C80.7372 156.774 80.8063 156.702 80.8936 156.661C80.9808 156.62 81.0802 156.612 81.1727 156.64C83.1775 157.234 86.0226 157.365 86.0511 157.366C86.107 157.369 86.1616 157.383 86.2114 157.408C86.2613 157.433 86.3051 157.469 86.3401 157.513C86.3751 157.556 86.4004 157.607 86.4144 157.661C86.4283 157.715 86.4306 157.772 86.421 157.827L84.4919 168.865C84.4738 168.968 84.4152 169.06 84.3293 169.12C84.2634 169.166 84.185 169.19 84.1047 169.19V169.19ZM77.1805 167.129L83.7857 168.339L85.5708 158.126C84.7293 158.068 82.8593 157.902 81.2874 157.488L77.1805 167.129Z" fill="#242D35"/>
<path d="M79.2105 156.308C79.7942 156.575 80.4133 156.813 81.0618 157.016C81.0618 157.016 79.3697 166.17 78.2927 171.016C76.0876 171.016 71.2923 169.699 66.6227 166.878C60.7052 163.308 54.9901 157.324 54.9901 148.555C54.9901 132.864 69.8321 121.98 76.011 118.459L76.7519 119.978L84.8293 136.556C83.1647 137.051 81.6691 137.686 80.3484 138.415C75.502 141.093 72.9864 145.077 72.9864 148.402C72.9864 151.474 75.3624 154.545 79.2105 156.306V156.308Z" fill="url(#paint15_linear_1_26670)"/>
<path d="M76.7519 119.978C76.1938 120.242 75.6219 120.48 75.0873 120.782C72.1079 122.475 70.6005 126.023 67.7213 127.879C66.7505 128.504 65.6263 128.934 64.8422 129.782C64.174 130.499 63.8202 131.445 63.3328 132.296C62.4052 133.91 60.9921 135.188 59.9427 136.725C58.3547 139.046 57.6629 141.848 56.9987 144.58C56.5113 146.593 56.0199 148.689 56.4523 150.713C56.8807 152.718 58.1759 154.458 58.5807 156.467C58.6986 157.049 58.7556 157.682 59.129 158.142C59.4278 158.508 59.8778 158.704 60.2945 158.922C63.3544 160.523 65.133 163.713 66.6227 166.878C60.7052 163.308 54.9901 157.324 54.9901 148.555C54.9901 132.864 69.8321 121.98 76.011 118.459L76.7519 119.978Z" fill="white"/>
<path d="M78.2927 171.409C75.784 171.409 69.859 169.728 64.5405 165.992C60.0042 162.805 54.5969 157.193 54.5969 148.555C54.5969 141.656 57.3862 134.971 62.8875 128.684C67.9291 122.923 73.6086 119.376 75.8162 118.117C75.9066 118.07 76.0118 118.059 76.1098 118.088C76.2078 118.116 76.2908 118.182 76.3413 118.271C76.3918 118.359 76.4059 118.464 76.3806 118.563C76.3552 118.662 76.2925 118.747 76.2056 118.801C74.0742 120.015 55.3832 131.167 55.3832 148.555C55.3832 156.855 60.6087 162.269 64.9925 165.349C69.9575 168.837 75.4173 170.485 77.9791 170.614C78.9248 166.303 80.3032 158.944 80.6124 157.283C80.0801 157.105 79.5576 156.899 79.047 156.666C79.035 156.66 79.0233 156.654 79.012 156.647C75.0517 154.823 72.5933 151.666 72.5933 148.402C72.5933 144.665 75.5627 140.61 80.1584 138.071C81.554 137.301 83.0877 136.664 84.7171 136.179C84.7667 136.164 84.8188 136.159 84.8704 136.164C84.922 136.169 84.9721 136.184 85.0178 136.209C85.0635 136.233 85.1039 136.267 85.1366 136.307C85.1694 136.347 85.1938 136.393 85.2086 136.443C85.2234 136.493 85.2282 136.545 85.2227 136.596C85.2173 136.648 85.2017 136.698 85.1768 136.744C85.1519 136.789 85.1183 136.829 85.0779 136.862C85.0374 136.894 84.991 136.918 84.9412 136.933C83.3656 137.402 81.8843 138.016 80.5383 138.76C76.1895 141.162 73.3793 144.947 73.3793 148.402C73.3793 151.364 75.6763 154.256 79.3738 155.949C79.3856 155.954 79.397 155.96 79.408 155.966C79.9838 156.227 80.5752 156.453 81.1788 156.641C81.2705 156.669 81.3486 156.73 81.3983 156.813C81.4479 156.895 81.4657 156.993 81.4482 157.087C81.4313 157.179 79.7423 166.305 78.6764 171.101C78.6569 171.189 78.6084 171.267 78.5386 171.323C78.4689 171.379 78.3821 171.409 78.2927 171.409Z" fill="#242D35"/>
<path d="M79.2105 156.306V156.308C75.1914 155.427 72.8095 152.782 71.7561 152.145C70.5258 151.402 70.6791 154.35 69.6532 154.35C68.6273 154.35 68.0771 153.318 68.474 151.016C68.987 148.042 73.3441 141.632 80.3484 138.416C75.502 141.093 72.9864 145.078 72.9864 148.402C72.9864 151.474 75.3624 154.545 79.2105 156.306Z" fill="#242D35"/>
<path d="M79.2105 156.701C79.1824 156.701 79.1543 156.698 79.1264 156.692C75.9481 155.996 73.7643 154.227 72.4593 153.17C72.0914 152.872 71.7738 152.615 71.5527 152.481C71.4511 152.419 71.3943 152.413 71.378 152.419C71.23 152.471 71.0403 152.984 70.9271 153.291C70.6882 153.938 70.3908 154.743 69.653 154.743C69.171 154.743 68.7614 154.56 68.4689 154.212C67.9485 153.594 67.8198 152.497 68.0867 150.949C68.6482 147.693 73.2796 141.229 80.1845 138.058C80.2769 138.016 80.382 138.012 80.4778 138.045C80.5735 138.079 80.6526 138.148 80.6983 138.239C80.744 138.33 80.753 138.434 80.7232 138.531C80.6934 138.629 80.6272 138.71 80.5385 138.76C76.1896 141.162 73.3795 144.947 73.3795 148.402C73.3795 151.364 75.6765 154.256 79.3742 155.949C79.4427 155.98 79.5008 156.03 79.5415 156.094C79.5822 156.157 79.6038 156.231 79.6038 156.306V156.308C79.6037 156.412 79.5622 156.512 79.4885 156.586C79.4148 156.66 79.3149 156.701 79.2107 156.701H79.2105ZM71.3919 151.631C71.5741 151.631 71.764 151.69 71.9593 151.808C72.2266 151.97 72.5477 152.23 72.9544 152.559C73.6159 153.095 74.5132 153.821 75.6551 154.484C73.7118 152.756 72.5933 150.603 72.5933 148.402C72.5933 146.36 73.4795 144.224 75.0331 142.292C71.2677 145.511 69.1737 149.273 68.8614 151.083C68.5658 152.798 68.8655 153.463 69.0703 153.706C69.2128 153.875 69.4033 153.957 69.6532 153.957C69.8435 153.957 70.052 153.393 70.19 153.019C70.4018 152.445 70.621 151.852 71.1184 151.678C71.2063 151.647 71.2989 151.631 71.3921 151.631L71.3919 151.631ZM92.4026 162.361C92.3183 162.361 92.2413 162.359 92.1715 162.357C92.0673 162.353 91.9689 162.308 91.898 162.231C91.827 162.155 91.7893 162.054 91.7932 161.949C91.7948 161.898 91.8066 161.847 91.828 161.8C91.8495 161.753 91.88 161.71 91.9179 161.675C91.9558 161.64 92.0003 161.613 92.0488 161.595C92.0973 161.577 92.1489 161.569 92.2006 161.571C93.5684 161.628 98.2922 161.115 100.083 160.287C100.13 160.265 100.181 160.253 100.232 160.251C100.284 160.248 100.335 160.257 100.384 160.274C100.432 160.292 100.477 160.319 100.514 160.354C100.552 160.39 100.583 160.432 100.605 160.479C100.626 160.525 100.638 160.576 100.641 160.628C100.643 160.679 100.635 160.731 100.617 160.779C100.599 160.828 100.572 160.872 100.537 160.91C100.502 160.948 100.459 160.979 100.413 161C98.5813 161.847 94.0912 162.361 92.4022 162.361H92.4026ZM112.48 151.985C112.403 151.985 112.328 151.962 112.263 151.92C112.199 151.877 112.148 151.816 112.118 151.745C111.83 151.065 111.863 149.551 111.901 147.798C111.934 146.319 111.967 144.789 111.774 144.038C111.495 142.945 109.976 140.777 108.755 139.034C108.205 138.248 107.685 137.506 107.311 136.915C106.642 135.854 106.355 134.075 106.052 132.191C105.778 130.488 105.494 128.727 104.92 127.626C104.274 126.388 102.85 125.347 101.472 124.339C100.321 123.498 99.2342 122.704 98.5656 121.792C98.0483 121.088 97.9312 120.279 97.8074 119.424C97.5629 117.737 97.2858 115.824 93.6521 114.024C93.4576 113.927 93.378 113.691 93.4745 113.497C93.571 113.302 93.8066 113.222 94.0012 113.319C98.0045 115.303 98.3266 117.525 98.5855 119.311C98.6996 120.099 98.7983 120.78 99.1994 121.327C99.7963 122.141 100.836 122.9 101.936 123.704C103.386 124.765 104.886 125.861 105.617 127.262C106.25 128.476 106.544 130.301 106.828 132.066C107.105 133.789 107.392 135.57 107.976 136.495C108.339 137.07 108.854 137.805 109.399 138.583C110.721 140.471 112.221 142.611 112.536 143.842C112.755 144.698 112.721 146.283 112.687 147.815C112.656 149.267 112.62 150.914 112.842 151.438C112.867 151.498 112.878 151.563 112.872 151.628C112.866 151.692 112.844 151.754 112.808 151.809C112.772 151.863 112.724 151.907 112.666 151.938C112.609 151.969 112.545 151.985 112.48 151.985V151.985ZM80.1639 98.2827C80.1054 98.2828 80.0477 98.2698 79.9949 98.2448C79.9421 98.2197 79.8956 98.1832 79.8587 98.1379C79.4872 97.6812 79.441 97.0909 79.7382 96.5973C80.0208 96.1279 80.5506 95.8802 81.0547 95.9794C81.1054 95.9895 81.1536 96.0094 81.1965 96.0381C81.2394 96.0667 81.2763 96.1036 81.305 96.1465C81.3337 96.1894 81.3537 96.2375 81.3638 96.2882C81.3739 96.3388 81.3739 96.391 81.3639 96.4416C81.3539 96.4923 81.3339 96.5404 81.3053 96.5834C81.2766 96.6263 81.2398 96.6632 81.1969 96.6919C81.154 96.7206 81.1059 96.7406 81.0552 96.7507C81.0046 96.7608 80.9525 96.7609 80.9018 96.7508C80.6927 96.7074 80.5049 96.8473 80.4115 97.0026C80.3524 97.1009 80.2395 97.36 80.4685 97.6413C80.5152 97.699 80.5447 97.7688 80.5534 97.8425C80.5622 97.9162 80.55 97.9909 80.5181 98.058C80.4862 98.1251 80.436 98.1817 80.3733 98.2215C80.3106 98.2612 80.2379 98.2824 80.1637 98.2826L80.1639 98.2827Z" fill="#242D35"/>
</g>
<g clip-path="url(#clip6_1_26670)">
<path d="M62.088 71.39H91.4086C93.0923 67.0836 85.4224 64.0075 81.6811 68.1908C81.4317 62.1617 75.3207 59.3933 71.1428 59.3933C65.6555 59.3933 59.7317 64.1919 62.088 71.39Z" fill="white"/>
</g>
<defs>
<linearGradient id="paint0_linear_1_26670" x1="264.517" y1="19.47" x2="129.782" y2="216.502" gradientUnits="userSpaceOnUse">
<stop stop-color="#2F51FF"/>
<stop offset="1" stop-color="#0E33F3"/>
</linearGradient>
<linearGradient id="paint1_linear_1_26670" x1="261.261" y1="40.1195" x2="41.7742" y2="278.977" gradientUnits="userSpaceOnUse">
<stop stop-color="#2F51FF"/>
<stop offset="1" stop-color="#0E33F3"/>
</linearGradient>
<linearGradient id="paint2_linear_1_26670" x1="223.218" y1="37.3665" x2="182.932" y2="106.801" gradientUnits="userSpaceOnUse">
<stop stop-color="#2F51FF"/>
<stop offset="1" stop-color="#0E33F3"/>
</linearGradient>
<linearGradient id="paint3_linear_1_26670" x1="81.2916" y1="253.271" x2="70.851" y2="268.606" gradientUnits="userSpaceOnUse">
<stop stop-color="#2F51FF"/>
<stop offset="1" stop-color="#0E33F3"/>
</linearGradient>
<linearGradient id="paint4_linear_1_26670" x1="163.424" y1="208.452" x2="155.423" y2="221.114" gradientUnits="userSpaceOnUse">
<stop stop-color="#2F51FF"/>
<stop offset="1" stop-color="#0E33F3"/>
</linearGradient>
<linearGradient id="paint5_linear_1_26670" x1="92.5742" y1="154.763" x2="88.6923" y2="160.922" gradientUnits="userSpaceOnUse">
<stop stop-color="#2F51FF"/>
<stop offset="1" stop-color="#0E33F3"/>
</linearGradient>
<linearGradient id="paint6_linear_1_26670" x1="175.871" y1="102.034" x2="162.696" y2="118.972" gradientUnits="userSpaceOnUse">
<stop stop-color="#2F51FF"/>
<stop offset="1" stop-color="#0E33F3"/>
</linearGradient>
<linearGradient id="paint7_linear_1_26670" x1="95.7774" y1="86.6006" x2="70.9975" y2="104.773" gradientUnits="userSpaceOnUse">
<stop stop-color="#2F51FF"/>
<stop offset="1" stop-color="#0E33F3"/>
</linearGradient>
<linearGradient id="paint8_linear_1_26670" x1="170.541" y1="150.094" x2="69.1265" y2="257.522" gradientUnits="userSpaceOnUse">
<stop stop-color="#2F51FF"/>
<stop offset="1" stop-color="#0E33F3"/>
</linearGradient>
<linearGradient id="paint9_linear_1_26670" x1="126.858" y1="147.858" x2="119.554" y2="169.644" gradientUnits="userSpaceOnUse">
<stop stop-color="#2F51FF"/>
<stop offset="1" stop-color="#0E33F3"/>
</linearGradient>
<linearGradient id="paint10_linear_1_26670" x1="108.592" y1="114.172" x2="62.2044" y2="151.791" gradientUnits="userSpaceOnUse">
<stop stop-color="#2F51FF"/>
<stop offset="1" stop-color="#0E33F3"/>
</linearGradient>
<linearGradient id="paint11_linear_1_26670" x1="98.9933" y1="114.172" x2="83.0615" y2="131.392" gradientUnits="userSpaceOnUse">
<stop stop-color="#2F51FF"/>
<stop offset="1" stop-color="#0E33F3"/>
</linearGradient>
<linearGradient id="paint12_linear_1_26670" x1="161.655" y1="111.026" x2="123.27" y2="172.549" gradientUnits="userSpaceOnUse">
<stop stop-color="#2F51FF"/>
<stop offset="1" stop-color="#0E33F3"/>
</linearGradient>
<linearGradient id="paint13_linear_1_26670" x1="110.618" y1="111.864" x2="97.3551" y2="126.962" gradientUnits="userSpaceOnUse">
<stop stop-color="#2F51FF"/>
<stop offset="1" stop-color="#0E33F3"/>
</linearGradient>
<linearGradient id="paint14_linear_1_26670" x1="101.127" y1="155.901" x2="90.6771" y2="172.147" gradientUnits="userSpaceOnUse">
<stop stop-color="#2F51FF"/>
<stop offset="1" stop-color="#0E33F3"/>
</linearGradient>
<linearGradient id="paint15_linear_1_26670" x1="84.8293" y1="118.459" x2="39.7319" y2="146.305" gradientUnits="userSpaceOnUse">
<stop stop-color="#2F51FF"/>
<stop offset="1" stop-color="#0E33F3"/>
</linearGradient>
<clipPath id="clip0_1_26670">
<rect width="202.567" height="150.647" fill="white" transform="translate(61.95 19.47)"/>
</clipPath>
<clipPath id="clip1_1_26670">
<rect width="70.6033" height="22.42" fill="white" transform="translate(197.453 100.89)"/>
</clipPath>
<clipPath id="clip2_1_26670">
<rect width="254.093" height="230.297" fill="white" transform="translate(19.0767 39.7267)"/>
</clipPath>
<clipPath id="clip3_1_26670">
<rect width="73.16" height="23.01" fill="white" transform="translate(108.363 31.4667)"/>
</clipPath>
<clipPath id="clip4_1_26670">
<rect width="79.2567" height="115.64" fill="white" transform="translate(144.353 36.9734)"/>
</clipPath>
<clipPath id="clip5_1_26670">
<rect width="130.98" height="189.193" fill="white" transform="translate(48.38 80.83)"/>
</clipPath>
<clipPath id="clip6_1_26670">
<rect width="30.09" height="11.9967" fill="white" transform="translate(61.5567 59.3933)"/>
</clipPath>
</defs>
</svg>
