<svg width="20" height="22" viewBox="0 0 20 22" fill="none" xmlns="http://www.w3.org/2000/svg">
<path fill-rule="evenodd" clip-rule="evenodd" d="M7 15C7 13.3431 8.34315 12 10 12C11.6569 12 13 13.3431 13 15C13 16.6569 11.6569 18 10 18C8.34315 18 7 16.6569 7 15ZM10 14C9.44772 14 9 14.4477 9 15C9 15.5523 9.44772 16 10 16C10.5523 16 11 15.5523 11 15C11 14.4477 10.5523 14 10 14Z" fill="#242D35"/>
<path fill-rule="evenodd" clip-rule="evenodd" d="M4 8V5.44444C4 3.95993 4.66446 2.5638 5.8001 1.55434C6.93191 0.548287 8.44424 0 10 0C11.5558 0 13.0681 0.548287 14.1999 1.55434C15.3355 2.5638 16 3.95993 16 5.44444V8H17C18.737 8 20 9.50823 20 11.1818V18.8182C20 20.4918 18.737 22 17 22H3C1.26302 22 0 20.4918 0 18.8182V11.1818C0 9.50823 1.26302 8 3 8H4ZM7.12883 3.04916C7.87239 2.38822 8.9036 2 10 2C11.0964 2 12.1276 2.38822 12.8712 3.04916C13.6109 3.70669 14 4.57148 14 5.44444V8H6V5.44444C6 4.57148 6.38911 3.70669 7.12883 3.04916ZM17 10C17.4722 10 18 10.4454 18 11.1818V18.8182C18 19.5546 17.4722 20 17 20H3C2.52784 20 2 19.5546 2 18.8182V11.1818C2 10.4454 2.52784 10 3 10H17Z" fill="#242D35"/>
</svg>
