<svg width="25" height="24" viewBox="0 0 25 24" fill="none" xmlns="http://www.w3.org/2000/svg">
<path fill-rule="evenodd" clip-rule="evenodd" d="M20.4399 15.4038L19.525 15L20.4441 15.3939C20.4941 15.2774 20.577 15.178 20.6827 15.1081C20.788 15.0383 20.9113 15.0008 21.0375 15H21.125C21.9207 15 22.6837 14.6839 23.2463 14.1213C23.8089 13.5587 24.125 12.7957 24.125 12C24.125 11.2043 23.8089 10.4413 23.2463 9.87868C22.6837 9.31607 21.9207 9 21.125 9H20.9575C20.8313 8.99921 20.708 8.96167 20.6027 8.89195C20.5318 8.84498 20.4711 8.78479 20.4238 8.71507C20.4095 8.64692 20.3881 8.58027 20.3599 8.51624C20.3074 8.39742 20.2918 8.26561 20.315 8.13782C20.3379 8.01142 20.3977 7.89468 20.4869 7.80231L20.5421 7.7471C20.8209 7.46857 21.042 7.13784 21.1929 6.77382C21.3439 6.40963 21.4216 6.01925 21.4216 5.625C21.4216 5.23075 21.3439 4.84037 21.1929 4.47618C21.0421 4.11233 20.8211 3.78174 20.5425 3.50329C20.2639 3.22436 19.933 3.00308 19.5688 2.85211C19.2046 2.70113 18.8142 2.62343 18.42 2.62343C18.0258 2.62343 17.6354 2.70113 17.2712 2.85211C16.907 3.00308 16.5761 3.22436 16.2975 3.50329L16.2427 3.55811C16.1503 3.64728 16.0336 3.70713 15.9072 3.73005C15.7794 3.75322 15.6476 3.73752 15.5288 3.68508L15.5189 3.68086C15.4024 3.63092 15.303 3.54801 15.2331 3.44232C15.1633 3.33704 15.1258 3.21374 15.125 3.0875V3C15.125 2.20435 14.8089 1.44129 14.2463 0.87868C13.6837 0.316071 12.9206 0 12.125 0C11.3294 0 10.5663 0.316071 10.0037 0.87868C9.44107 1.44129 9.125 2.20435 9.125 3V3.1675C9.12421 3.29374 9.08667 3.41704 9.01695 3.52232C8.96998 3.59323 8.90979 3.6539 8.84007 3.70122C8.77193 3.71549 8.70527 3.73687 8.64124 3.76514C8.52242 3.81758 8.39061 3.83322 8.26282 3.81005C8.13642 3.78713 8.01968 3.72728 7.92731 3.6381L7.8725 3.58329C7.59388 3.30436 7.26302 3.08308 6.89882 2.93211C6.53463 2.78113 6.14425 2.70343 5.75 2.70343C5.35575 2.70343 4.96537 2.78113 4.60118 2.93211C4.23716 3.08301 3.90643 3.30415 3.62789 3.58289C3.34915 3.86143 3.12801 4.19216 2.97711 4.55618C2.82613 4.92037 2.74843 5.31075 2.74843 5.705C2.74843 6.09925 2.82613 6.48963 2.97711 6.85382C3.12808 7.21802 3.34936 7.54888 3.62829 7.8275L3.6831 7.88231C3.77228 7.97468 3.83213 8.09142 3.85505 8.21782C3.87822 8.34561 3.86258 8.47742 3.81014 8.59624C3.80163 8.61551 3.79374 8.63505 3.78646 8.65482C3.74144 8.77723 3.66064 8.88326 3.55455 8.95914C3.45091 9.03327 3.32783 9.07526 3.20064 9.08H3.125C2.32935 9.08 1.56629 9.39607 1.00368 9.95868C0.441071 10.5213 0.125 11.2844 0.125 12.08C0.125 12.8756 0.441071 13.6387 1.00368 14.2013C1.56629 14.7639 2.32935 15.08 3.125 15.08H3.2925C3.41874 15.0808 3.54204 15.1183 3.64732 15.1881C3.75301 15.258 3.83587 15.3574 3.88581 15.474L3.89014 15.4838C3.94258 15.6026 3.95822 15.7344 3.93505 15.8622C3.91213 15.9886 3.85228 16.1053 3.76311 16.1977L3.70829 16.2525C3.42936 16.5311 3.20808 16.862 3.05711 17.2262C2.90613 17.5904 2.82843 17.9808 2.82843 18.375C2.82843 18.7692 2.90613 19.1596 3.05711 19.5238C3.20808 19.888 3.42936 20.2189 3.70829 20.4975C3.98674 20.7761 4.31733 20.9971 4.68118 21.1479C5.04537 21.2989 5.43575 21.3766 5.83 21.3766C6.22425 21.3766 6.61463 21.2989 6.97882 21.1479C7.34284 20.997 7.67396 20.7755 7.9525 20.4967L8.0073 20.4419C8.09967 20.3527 8.21642 20.2929 8.34282 20.27C8.47061 20.2468 8.60242 20.2624 8.72124 20.3149C8.74051 20.3234 8.76005 20.3313 8.77982 20.3385C8.90223 20.3836 9.00826 20.4644 9.08414 20.5704C9.15827 20.6741 9.20026 20.7972 9.205 20.9244V21C9.205 21.7957 9.52107 22.5587 10.0837 23.1213C10.6463 23.6839 11.4093 24 12.205 24C13.0007 24 13.7637 23.6839 14.3263 23.1213C14.8889 22.5587 15.205 21.7957 15.205 21V20.8325C15.2058 20.7063 15.2433 20.583 15.3131 20.4777C15.383 20.372 15.4824 20.2891 15.599 20.2392L15.6088 20.2349C15.7276 20.1824 15.8594 20.1668 15.9872 20.19C16.1136 20.2129 16.2303 20.2727 16.3227 20.3619L16.3779 20.4171C16.6564 20.6959 16.9872 20.917 17.3512 21.0679C17.7154 21.2189 18.1058 21.2966 18.5 21.2966C18.8942 21.2966 19.2846 21.2189 19.6488 21.0679C20.0128 20.917 20.3436 20.6959 20.6221 20.4171C20.9009 20.1386 21.122 19.8078 21.2729 19.4438C21.4239 19.0796 21.5016 18.6892 21.5016 18.295C21.5016 17.9008 21.4239 17.5104 21.2729 17.1462C21.122 16.7822 20.9005 16.451 20.6217 16.1725L20.5669 16.1177C20.4777 16.0253 20.4179 15.9086 20.395 15.7822C20.3718 15.6544 20.3874 15.5226 20.4399 15.4038ZM12.125 8C9.91586 8 8.125 9.79086 8.125 12C8.125 14.2091 9.91586 16 12.125 16C14.3341 16 16.125 14.2091 16.125 12C16.125 9.79086 14.3341 8 12.125 8ZM10.125 12C10.125 10.8954 11.0204 10 12.125 10C13.2296 10 14.125 10.8954 14.125 12C14.125 13.1046 13.2296 14 12.125 14C11.0204 14 10.125 13.1046 10.125 12Z" fill="#0E33F3"/>
</svg>
