<svg width="21" height="22" viewBox="0 0 21 22" fill="none" xmlns="http://www.w3.org/2000/svg">
<path fill-rule="evenodd" clip-rule="evenodd" d="M10.375 0C8.25327 0 6.21844 0.842855 4.71815 2.34315C3.21785 3.84344 2.375 5.87827 2.375 8V10.9939C2.34638 13.2833 1.7058 15.5235 0.519644 17.482C0.332625 17.7908 0.326563 18.1764 0.503782 18.4909C0.681002 18.8054 1.01399 19 1.375 19H19.375C19.736 19 20.069 18.8054 20.2462 18.4909C20.4234 18.1764 20.4174 17.7908 20.2304 17.482C19.0442 15.5235 18.4036 13.2833 18.375 10.9939V8C18.375 5.87827 17.5321 3.84344 16.0319 2.34315C14.5316 0.842855 12.4967 0 10.375 0Z" fill="#0E33F3"/>
<path d="M8.53945 21.4497C8.00234 21.0916 7.59559 20.5852 7.375 20H13.375C13.1544 20.5852 12.7477 21.0916 12.2105 21.4497C11.6734 21.8078 11.0323 22 10.375 22C9.71773 22 9.07657 21.8078 8.53945 21.4497Z" fill="#0E33F3"/>
</svg>
