<svg width="21" height="22" viewBox="0 0 21 22" fill="none" xmlns="http://www.w3.org/2000/svg">
<path fill-rule="evenodd" clip-rule="evenodd" d="M0.625 3C0.625 1.34315 1.96815 0 3.625 0H17.625C19.2819 0 20.625 1.34315 20.625 3V14H0.625V3ZM14.3321 5.29289C14.7226 5.68342 14.7226 6.31658 14.3321 6.70711L10.3321 10.7071C9.94158 11.0976 9.30842 11.0976 8.91789 10.7071L6.91789 8.70711C6.52737 8.31658 6.52737 7.68342 6.91789 7.29289C7.30842 6.90237 7.94158 6.90237 8.33211 7.29289L9.625 8.58579L12.9179 5.29289C13.3084 4.90237 13.9416 4.90237 14.3321 5.29289ZM20.625 16H0.625V19C0.625 20.6569 1.96815 22 3.625 22H17.625C19.2819 22 20.625 20.6569 20.625 19V16Z" fill="#0E33F3"/>
</svg>
