<svg width="21" height="22" viewBox="0 0 21 22" fill="none" xmlns="http://www.w3.org/2000/svg">
    <path fill-rule="evenodd" clip-rule="evenodd"
        d="M11.4889 0.210648C11.1278 -0.0702159 10.6222 -0.0702159 10.2611 0.210648L1.26106 7.21065C1.01747 7.4001 0.875 7.69141 0.875 8V19C0.875 19.7957 1.19107 20.5587 1.75368 21.1213C2.31629 21.6839 3.07935 22 3.875 22H17.875C18.6707 22 19.4337 21.6839 19.9963 21.1213C20.5589 20.5587 20.875 19.7957 20.875 19V8C20.875 7.69141 20.7325 7.4001 20.4889 7.21065L11.4889 0.210648ZM14.875 20H17.875C18.1402 20 18.3946 19.8946 18.5821 19.7071C18.7696 19.5196 18.875 19.2652 18.875 19V8.48908L10.875 2.26686L2.875 8.48908V19C2.875 19.2652 2.98036 19.5196 3.16789 19.7071C3.35543 19.8946 3.60978 20 3.875 20H6.875V11C6.875 10.4477 7.32272 10 7.875 10H13.875C14.4273 10 14.875 10.4477 14.875 11V20ZM8.875 20V12H12.875V20H8.875Z"
        fill="#B0B8BF" />
</svg>
